%TF.GenerationSoftware,KiCad,Pcbnew,9.0.7*%
%TF.CreationDate,2026-02-22T20:56:26+05:30*%
%TF.ProjectId,555_timer,3535355f-7469-46d6-9572-2e6b69636164,rev?*%
%TF.SameCoordinates,Original*%
%TF.FileFunction,Legend,Bot*%
%TF.FilePolarity,Positive*%
%FSLAX46Y46*%
G04 Gerber Fmt 4.6, Leading zero omitted, Abs format (unit mm)*
G04 Created by KiCad (PCBNEW 9.0.7) date 2026-02-22 20:56:26*
%MOMM*%
%LPD*%
G01*
G04 APERTURE LIST*
%ADD10C,0.010000*%
G04 APERTURE END LIST*
D10*
%TO.C,REF\u002A\u002A*%
X134355406Y-102774949D02*
X134381127Y-102790647D01*
X134407778Y-102812227D01*
X134407778Y-103459684D01*
X134381127Y-103481264D01*
X134349767Y-103498739D01*
X134313966Y-103499575D01*
X134282528Y-103479082D01*
X134278652Y-103474416D01*
X134273186Y-103464949D01*
X134268979Y-103451267D01*
X134265867Y-103430748D01*
X134263687Y-103400768D01*
X134262276Y-103358704D01*
X134261471Y-103301932D01*
X134261107Y-103227830D01*
X134261022Y-103133773D01*
X134261022Y-102812227D01*
X134287673Y-102790647D01*
X134311386Y-102775877D01*
X134334400Y-102769067D01*
X134355406Y-102774949D01*
G36*
X134355406Y-102774949D02*
G01*
X134381127Y-102790647D01*
X134407778Y-102812227D01*
X134407778Y-103459684D01*
X134381127Y-103481264D01*
X134349767Y-103498739D01*
X134313966Y-103499575D01*
X134282528Y-103479082D01*
X134278652Y-103474416D01*
X134273186Y-103464949D01*
X134268979Y-103451267D01*
X134265867Y-103430748D01*
X134263687Y-103400768D01*
X134262276Y-103358704D01*
X134261471Y-103301932D01*
X134261107Y-103227830D01*
X134261022Y-103133773D01*
X134261022Y-102812227D01*
X134287673Y-102790647D01*
X134311386Y-102775877D01*
X134334400Y-102769067D01*
X134355406Y-102774949D01*
G37*
X141486137Y-102773463D02*
X141520291Y-102796776D01*
X141548000Y-102824485D01*
X141548000Y-103137537D01*
X141547959Y-103221567D01*
X141547701Y-103295789D01*
X141547030Y-103352541D01*
X141545752Y-103394512D01*
X141543673Y-103424389D01*
X141540599Y-103444861D01*
X141536334Y-103458614D01*
X141530684Y-103468337D01*
X141523455Y-103476717D01*
X141491991Y-103498181D01*
X141456826Y-103499947D01*
X141423822Y-103480267D01*
X141418516Y-103474398D01*
X141413066Y-103465314D01*
X141408900Y-103451973D01*
X141405846Y-103431757D01*
X141403732Y-103402049D01*
X141402386Y-103360232D01*
X141401638Y-103303689D01*
X141401314Y-103229802D01*
X141401245Y-103135956D01*
X141401284Y-103060294D01*
X141401539Y-102982385D01*
X141402183Y-102922375D01*
X141403387Y-102877648D01*
X141405324Y-102845585D01*
X141408164Y-102823571D01*
X141412079Y-102808987D01*
X141417242Y-102799218D01*
X141423822Y-102791645D01*
X141453006Y-102772623D01*
X141486137Y-102773463D01*
G36*
X141486137Y-102773463D02*
G01*
X141520291Y-102796776D01*
X141548000Y-102824485D01*
X141548000Y-103137537D01*
X141547959Y-103221567D01*
X141547701Y-103295789D01*
X141547030Y-103352541D01*
X141545752Y-103394512D01*
X141543673Y-103424389D01*
X141540599Y-103444861D01*
X141536334Y-103458614D01*
X141530684Y-103468337D01*
X141523455Y-103476717D01*
X141491991Y-103498181D01*
X141456826Y-103499947D01*
X141423822Y-103480267D01*
X141418516Y-103474398D01*
X141413066Y-103465314D01*
X141408900Y-103451973D01*
X141405846Y-103431757D01*
X141403732Y-103402049D01*
X141402386Y-103360232D01*
X141401638Y-103303689D01*
X141401314Y-103229802D01*
X141401245Y-103135956D01*
X141401284Y-103060294D01*
X141401539Y-102982385D01*
X141402183Y-102922375D01*
X141403387Y-102877648D01*
X141405324Y-102845585D01*
X141408164Y-102823571D01*
X141412079Y-102808987D01*
X141417242Y-102799218D01*
X141423822Y-102791645D01*
X141453006Y-102772623D01*
X141486137Y-102773463D01*
G37*
X140954562Y-97532850D02*
X141037313Y-97560053D01*
X141112406Y-97605484D01*
X141184298Y-97671302D01*
X141222846Y-97715567D01*
X141262256Y-97773961D01*
X141287446Y-97834586D01*
X141300861Y-97903865D01*
X141304948Y-97988222D01*
X141304669Y-98034307D01*
X141302460Y-98075450D01*
X141296894Y-98107582D01*
X141286586Y-98138122D01*
X141270148Y-98174489D01*
X141256200Y-98201728D01*
X141197665Y-98287429D01*
X141125619Y-98356617D01*
X141041947Y-98407741D01*
X140948531Y-98439250D01*
X140915434Y-98446225D01*
X140874960Y-98453094D01*
X140841999Y-98454919D01*
X140807698Y-98451947D01*
X140763200Y-98444426D01*
X140711934Y-98432002D01*
X140621434Y-98394112D01*
X140542345Y-98339836D01*
X140476528Y-98271770D01*
X140425840Y-98192511D01*
X140392140Y-98104654D01*
X140377286Y-98010795D01*
X140383136Y-97913530D01*
X140409399Y-97817220D01*
X140454418Y-97728494D01*
X140515373Y-97653419D01*
X140590184Y-97593641D01*
X140676768Y-97550809D01*
X140773043Y-97526571D01*
X140876928Y-97522576D01*
X140954562Y-97532850D01*
G36*
X140954562Y-97532850D02*
G01*
X141037313Y-97560053D01*
X141112406Y-97605484D01*
X141184298Y-97671302D01*
X141222846Y-97715567D01*
X141262256Y-97773961D01*
X141287446Y-97834586D01*
X141300861Y-97903865D01*
X141304948Y-97988222D01*
X141304669Y-98034307D01*
X141302460Y-98075450D01*
X141296894Y-98107582D01*
X141286586Y-98138122D01*
X141270148Y-98174489D01*
X141256200Y-98201728D01*
X141197665Y-98287429D01*
X141125619Y-98356617D01*
X141041947Y-98407741D01*
X140948531Y-98439250D01*
X140915434Y-98446225D01*
X140874960Y-98453094D01*
X140841999Y-98454919D01*
X140807698Y-98451947D01*
X140763200Y-98444426D01*
X140711934Y-98432002D01*
X140621434Y-98394112D01*
X140542345Y-98339836D01*
X140476528Y-98271770D01*
X140425840Y-98192511D01*
X140392140Y-98104654D01*
X140377286Y-98010795D01*
X140383136Y-97913530D01*
X140409399Y-97817220D01*
X140454418Y-97728494D01*
X140515373Y-97653419D01*
X140590184Y-97593641D01*
X140676768Y-97550809D01*
X140773043Y-97526571D01*
X140876928Y-97522576D01*
X140954562Y-97532850D01*
G37*
X133655767Y-102769068D02*
X133749890Y-102769158D01*
X133824405Y-102769498D01*
X133881811Y-102770239D01*
X133924611Y-102771535D01*
X133955304Y-102773537D01*
X133976391Y-102776396D01*
X133990373Y-102780266D01*
X133999750Y-102785298D01*
X134007022Y-102791645D01*
X134025828Y-102824362D01*
X134027275Y-102861939D01*
X134010917Y-102895178D01*
X134009557Y-102896631D01*
X133998354Y-102904992D01*
X133981252Y-102910547D01*
X133954082Y-102913840D01*
X133912678Y-102915418D01*
X133852873Y-102915822D01*
X133713511Y-102915822D01*
X133713511Y-103179589D01*
X133713436Y-103255417D01*
X133713028Y-103322083D01*
X133712046Y-103371867D01*
X133710250Y-103407784D01*
X133707399Y-103432850D01*
X133703253Y-103450081D01*
X133697571Y-103462492D01*
X133690114Y-103473100D01*
X133687824Y-103475906D01*
X133656646Y-103498548D01*
X133622266Y-103500112D01*
X133589334Y-103480267D01*
X133582355Y-103472191D01*
X133576883Y-103461593D01*
X133572863Y-103445749D01*
X133570072Y-103421773D01*
X133568288Y-103386774D01*
X133567289Y-103337864D01*
X133566852Y-103272154D01*
X133566756Y-103186756D01*
X133566756Y-102915822D01*
X133420820Y-102915822D01*
X133409720Y-102915821D01*
X133353202Y-102915596D01*
X133314358Y-102914457D01*
X133288965Y-102911657D01*
X133272804Y-102906450D01*
X133261652Y-102898089D01*
X133251289Y-102885826D01*
X133235441Y-102855138D01*
X133238543Y-102821358D01*
X133264187Y-102788822D01*
X133269129Y-102785105D01*
X133279338Y-102780269D01*
X133294764Y-102776506D01*
X133317886Y-102773683D01*
X133351183Y-102771670D01*
X133397137Y-102770333D01*
X133458228Y-102769542D01*
X133536935Y-102769163D01*
X133635740Y-102769067D01*
X133655767Y-102769068D01*
G36*
X133655767Y-102769068D02*
G01*
X133749890Y-102769158D01*
X133824405Y-102769498D01*
X133881811Y-102770239D01*
X133924611Y-102771535D01*
X133955304Y-102773537D01*
X133976391Y-102776396D01*
X133990373Y-102780266D01*
X133999750Y-102785298D01*
X134007022Y-102791645D01*
X134025828Y-102824362D01*
X134027275Y-102861939D01*
X134010917Y-102895178D01*
X134009557Y-102896631D01*
X133998354Y-102904992D01*
X133981252Y-102910547D01*
X133954082Y-102913840D01*
X133912678Y-102915418D01*
X133852873Y-102915822D01*
X133713511Y-102915822D01*
X133713511Y-103179589D01*
X133713436Y-103255417D01*
X133713028Y-103322083D01*
X133712046Y-103371867D01*
X133710250Y-103407784D01*
X133707399Y-103432850D01*
X133703253Y-103450081D01*
X133697571Y-103462492D01*
X133690114Y-103473100D01*
X133687824Y-103475906D01*
X133656646Y-103498548D01*
X133622266Y-103500112D01*
X133589334Y-103480267D01*
X133582355Y-103472191D01*
X133576883Y-103461593D01*
X133572863Y-103445749D01*
X133570072Y-103421773D01*
X133568288Y-103386774D01*
X133567289Y-103337864D01*
X133566852Y-103272154D01*
X133566756Y-103186756D01*
X133566756Y-102915822D01*
X133420820Y-102915822D01*
X133409720Y-102915821D01*
X133353202Y-102915596D01*
X133314358Y-102914457D01*
X133288965Y-102911657D01*
X133272804Y-102906450D01*
X133261652Y-102898089D01*
X133251289Y-102885826D01*
X133235441Y-102855138D01*
X133238543Y-102821358D01*
X133264187Y-102788822D01*
X133269129Y-102785105D01*
X133279338Y-102780269D01*
X133294764Y-102776506D01*
X133317886Y-102773683D01*
X133351183Y-102771670D01*
X133397137Y-102770333D01*
X133458228Y-102769542D01*
X133536935Y-102769163D01*
X133635740Y-102769067D01*
X133655767Y-102769068D01*
G37*
X132979734Y-102791645D02*
X132985366Y-102797835D01*
X132990456Y-102806041D01*
X132994543Y-102817817D01*
X132997721Y-102835276D01*
X133000087Y-102860530D01*
X133001738Y-102895690D01*
X133002769Y-102942869D01*
X133003277Y-103004177D01*
X133003359Y-103081727D01*
X133003109Y-103177631D01*
X133002625Y-103294000D01*
X133002557Y-103308175D01*
X133001971Y-103369937D01*
X133000648Y-103413620D01*
X132998103Y-103443001D01*
X132993848Y-103461855D01*
X132987396Y-103473959D01*
X132978262Y-103483089D01*
X132944804Y-103500506D01*
X132909856Y-103497604D01*
X132878953Y-103473100D01*
X132869944Y-103459897D01*
X132862492Y-103441361D01*
X132858124Y-103415333D01*
X132856069Y-103376787D01*
X132855556Y-103320700D01*
X132855556Y-103198045D01*
X132358845Y-103198045D01*
X132358845Y-103332871D01*
X132358772Y-103368662D01*
X132358009Y-103414992D01*
X132355833Y-103445526D01*
X132351536Y-103464557D01*
X132344412Y-103476374D01*
X132333755Y-103485271D01*
X132301504Y-103500341D01*
X132266217Y-103497673D01*
X132235486Y-103473100D01*
X132230831Y-103466845D01*
X132224895Y-103456321D01*
X132220364Y-103442391D01*
X132217048Y-103422317D01*
X132214759Y-103393360D01*
X132213308Y-103352780D01*
X132212505Y-103297840D01*
X132212162Y-103225799D01*
X132212089Y-103133920D01*
X132212089Y-102824485D01*
X132239798Y-102796776D01*
X132271177Y-102774533D01*
X132304406Y-102771844D01*
X132336267Y-102791645D01*
X132344553Y-102801415D01*
X132351965Y-102817307D01*
X132356302Y-102841275D01*
X132358338Y-102878148D01*
X132358845Y-102932756D01*
X132358845Y-103051289D01*
X132855556Y-103051289D01*
X132855556Y-102935776D01*
X132855994Y-102884078D01*
X132857958Y-102849554D01*
X132862474Y-102826978D01*
X132870567Y-102811126D01*
X132883265Y-102796776D01*
X132914643Y-102774533D01*
X132947872Y-102771844D01*
X132979734Y-102791645D01*
G36*
X132979734Y-102791645D02*
G01*
X132985366Y-102797835D01*
X132990456Y-102806041D01*
X132994543Y-102817817D01*
X132997721Y-102835276D01*
X133000087Y-102860530D01*
X133001738Y-102895690D01*
X133002769Y-102942869D01*
X133003277Y-103004177D01*
X133003359Y-103081727D01*
X133003109Y-103177631D01*
X133002625Y-103294000D01*
X133002557Y-103308175D01*
X133001971Y-103369937D01*
X133000648Y-103413620D01*
X132998103Y-103443001D01*
X132993848Y-103461855D01*
X132987396Y-103473959D01*
X132978262Y-103483089D01*
X132944804Y-103500506D01*
X132909856Y-103497604D01*
X132878953Y-103473100D01*
X132869944Y-103459897D01*
X132862492Y-103441361D01*
X132858124Y-103415333D01*
X132856069Y-103376787D01*
X132855556Y-103320700D01*
X132855556Y-103198045D01*
X132358845Y-103198045D01*
X132358845Y-103332871D01*
X132358772Y-103368662D01*
X132358009Y-103414992D01*
X132355833Y-103445526D01*
X132351536Y-103464557D01*
X132344412Y-103476374D01*
X132333755Y-103485271D01*
X132301504Y-103500341D01*
X132266217Y-103497673D01*
X132235486Y-103473100D01*
X132230831Y-103466845D01*
X132224895Y-103456321D01*
X132220364Y-103442391D01*
X132217048Y-103422317D01*
X132214759Y-103393360D01*
X132213308Y-103352780D01*
X132212505Y-103297840D01*
X132212162Y-103225799D01*
X132212089Y-103133920D01*
X132212089Y-102824485D01*
X132239798Y-102796776D01*
X132271177Y-102774533D01*
X132304406Y-102771844D01*
X132336267Y-102791645D01*
X132344553Y-102801415D01*
X132351965Y-102817307D01*
X132356302Y-102841275D01*
X132358338Y-102878148D01*
X132358845Y-102932756D01*
X132358845Y-103051289D01*
X132855556Y-103051289D01*
X132855556Y-102935776D01*
X132855994Y-102884078D01*
X132857958Y-102849554D01*
X132862474Y-102826978D01*
X132870567Y-102811126D01*
X132883265Y-102796776D01*
X132914643Y-102774533D01*
X132947872Y-102771844D01*
X132979734Y-102791645D01*
G37*
X137685133Y-103380396D02*
X137683163Y-103413175D01*
X137680235Y-103436095D01*
X137676158Y-103451897D01*
X137670743Y-103463319D01*
X137663803Y-103473100D01*
X137640406Y-103502845D01*
X137474714Y-103502251D01*
X137439918Y-103501953D01*
X137341435Y-103498522D01*
X137260473Y-103490839D01*
X137193379Y-103478282D01*
X137136496Y-103460227D01*
X137086169Y-103436052D01*
X137082810Y-103434135D01*
X137024998Y-103397417D01*
X136982644Y-103360451D01*
X136949828Y-103316966D01*
X136920628Y-103260689D01*
X136916346Y-103251073D01*
X136893769Y-103187887D01*
X136888034Y-103142333D01*
X137037279Y-103142333D01*
X137042892Y-103167061D01*
X137048618Y-103182939D01*
X137081548Y-103242847D01*
X137128886Y-103288600D01*
X137192652Y-103321736D01*
X137274861Y-103343790D01*
X137277655Y-103344292D01*
X137323940Y-103350255D01*
X137380336Y-103354483D01*
X137435274Y-103356089D01*
X137529156Y-103356089D01*
X137529156Y-102915822D01*
X137441667Y-102916270D01*
X137374747Y-102918746D01*
X137282349Y-102929998D01*
X137203034Y-102949537D01*
X137141060Y-102976511D01*
X137110120Y-102997240D01*
X137082000Y-103027006D01*
X137058660Y-103069434D01*
X137051533Y-103085400D01*
X137039709Y-103117902D01*
X137037279Y-103142333D01*
X136888034Y-103142333D01*
X136886797Y-103132509D01*
X136895399Y-103077483D01*
X136919541Y-103015351D01*
X136920337Y-103013658D01*
X136960788Y-102944236D01*
X137011473Y-102887638D01*
X137074198Y-102843070D01*
X137150774Y-102809741D01*
X137243009Y-102786861D01*
X137352712Y-102773636D01*
X137481691Y-102769275D01*
X137485263Y-102769270D01*
X137545283Y-102769410D01*
X137587214Y-102770446D01*
X137615328Y-102773040D01*
X137633897Y-102777853D01*
X137647194Y-102785544D01*
X137659491Y-102796776D01*
X137687200Y-102824485D01*
X137687200Y-103133920D01*
X137687175Y-103195526D01*
X137686950Y-103274311D01*
X137686332Y-103335021D01*
X137685775Y-103356089D01*
X137685133Y-103380396D01*
G36*
X137685133Y-103380396D02*
G01*
X137683163Y-103413175D01*
X137680235Y-103436095D01*
X137676158Y-103451897D01*
X137670743Y-103463319D01*
X137663803Y-103473100D01*
X137640406Y-103502845D01*
X137474714Y-103502251D01*
X137439918Y-103501953D01*
X137341435Y-103498522D01*
X137260473Y-103490839D01*
X137193379Y-103478282D01*
X137136496Y-103460227D01*
X137086169Y-103436052D01*
X137082810Y-103434135D01*
X137024998Y-103397417D01*
X136982644Y-103360451D01*
X136949828Y-103316966D01*
X136920628Y-103260689D01*
X136916346Y-103251073D01*
X136893769Y-103187887D01*
X136888034Y-103142333D01*
X137037279Y-103142333D01*
X137042892Y-103167061D01*
X137048618Y-103182939D01*
X137081548Y-103242847D01*
X137128886Y-103288600D01*
X137192652Y-103321736D01*
X137274861Y-103343790D01*
X137277655Y-103344292D01*
X137323940Y-103350255D01*
X137380336Y-103354483D01*
X137435274Y-103356089D01*
X137529156Y-103356089D01*
X137529156Y-102915822D01*
X137441667Y-102916270D01*
X137374747Y-102918746D01*
X137282349Y-102929998D01*
X137203034Y-102949537D01*
X137141060Y-102976511D01*
X137110120Y-102997240D01*
X137082000Y-103027006D01*
X137058660Y-103069434D01*
X137051533Y-103085400D01*
X137039709Y-103117902D01*
X137037279Y-103142333D01*
X136888034Y-103142333D01*
X136886797Y-103132509D01*
X136895399Y-103077483D01*
X136919541Y-103015351D01*
X136920337Y-103013658D01*
X136960788Y-102944236D01*
X137011473Y-102887638D01*
X137074198Y-102843070D01*
X137150774Y-102809741D01*
X137243009Y-102786861D01*
X137352712Y-102773636D01*
X137481691Y-102769275D01*
X137485263Y-102769270D01*
X137545283Y-102769410D01*
X137587214Y-102770446D01*
X137615328Y-102773040D01*
X137633897Y-102777853D01*
X137647194Y-102785544D01*
X137659491Y-102796776D01*
X137687200Y-102824485D01*
X137687200Y-103133920D01*
X137687175Y-103195526D01*
X137686950Y-103274311D01*
X137686332Y-103335021D01*
X137685775Y-103356089D01*
X137685133Y-103380396D01*
G37*
X144776817Y-102954427D02*
X144776870Y-103035041D01*
X144776622Y-103135956D01*
X144776583Y-103211617D01*
X144776328Y-103289526D01*
X144775684Y-103349536D01*
X144774480Y-103394264D01*
X144772543Y-103426326D01*
X144769703Y-103448340D01*
X144765788Y-103462924D01*
X144760626Y-103472694D01*
X144754045Y-103480267D01*
X144747077Y-103486501D01*
X144734079Y-103493801D01*
X144714931Y-103498554D01*
X144685528Y-103501292D01*
X144641762Y-103502545D01*
X144579528Y-103502845D01*
X144530582Y-103502469D01*
X144423722Y-103498041D01*
X144334494Y-103487953D01*
X144259696Y-103471365D01*
X144196125Y-103447435D01*
X144140579Y-103415321D01*
X144089854Y-103374182D01*
X144083866Y-103368330D01*
X144046999Y-103319821D01*
X144015899Y-103259013D01*
X143994417Y-103194769D01*
X143989136Y-103156026D01*
X144136353Y-103156026D01*
X144154635Y-103206961D01*
X144184305Y-103252878D01*
X144231002Y-103295287D01*
X144292392Y-103325090D01*
X144371538Y-103344226D01*
X144373028Y-103344464D01*
X144421999Y-103350256D01*
X144480693Y-103354396D01*
X144536734Y-103356004D01*
X144629867Y-103356089D01*
X144629867Y-102915822D01*
X144553667Y-102915808D01*
X144550639Y-102915817D01*
X144499519Y-102917782D01*
X144439416Y-102922507D01*
X144382708Y-102929035D01*
X144332750Y-102938331D01*
X144257998Y-102964600D01*
X144200489Y-103003899D01*
X144158988Y-103056933D01*
X144137771Y-103108200D01*
X144136353Y-103156026D01*
X143989136Y-103156026D01*
X143986400Y-103135956D01*
X143987679Y-103114739D01*
X143999991Y-103057323D01*
X144022520Y-102997413D01*
X144051750Y-102943363D01*
X144084167Y-102903532D01*
X144103708Y-102886510D01*
X144158420Y-102847322D01*
X144218723Y-102817193D01*
X144287919Y-102795232D01*
X144369311Y-102780550D01*
X144466200Y-102772259D01*
X144581889Y-102769467D01*
X144621371Y-102769066D01*
X144667082Y-102768653D01*
X144702883Y-102770457D01*
X144729974Y-102776739D01*
X144749556Y-102789759D01*
X144762830Y-102811778D01*
X144770998Y-102845055D01*
X144775260Y-102891851D01*
X144775857Y-102915822D01*
X144776817Y-102954427D01*
G36*
X144776817Y-102954427D02*
G01*
X144776870Y-103035041D01*
X144776622Y-103135956D01*
X144776583Y-103211617D01*
X144776328Y-103289526D01*
X144775684Y-103349536D01*
X144774480Y-103394264D01*
X144772543Y-103426326D01*
X144769703Y-103448340D01*
X144765788Y-103462924D01*
X144760626Y-103472694D01*
X144754045Y-103480267D01*
X144747077Y-103486501D01*
X144734079Y-103493801D01*
X144714931Y-103498554D01*
X144685528Y-103501292D01*
X144641762Y-103502545D01*
X144579528Y-103502845D01*
X144530582Y-103502469D01*
X144423722Y-103498041D01*
X144334494Y-103487953D01*
X144259696Y-103471365D01*
X144196125Y-103447435D01*
X144140579Y-103415321D01*
X144089854Y-103374182D01*
X144083866Y-103368330D01*
X144046999Y-103319821D01*
X144015899Y-103259013D01*
X143994417Y-103194769D01*
X143989136Y-103156026D01*
X144136353Y-103156026D01*
X144154635Y-103206961D01*
X144184305Y-103252878D01*
X144231002Y-103295287D01*
X144292392Y-103325090D01*
X144371538Y-103344226D01*
X144373028Y-103344464D01*
X144421999Y-103350256D01*
X144480693Y-103354396D01*
X144536734Y-103356004D01*
X144629867Y-103356089D01*
X144629867Y-102915822D01*
X144553667Y-102915808D01*
X144550639Y-102915817D01*
X144499519Y-102917782D01*
X144439416Y-102922507D01*
X144382708Y-102929035D01*
X144332750Y-102938331D01*
X144257998Y-102964600D01*
X144200489Y-103003899D01*
X144158988Y-103056933D01*
X144137771Y-103108200D01*
X144136353Y-103156026D01*
X143989136Y-103156026D01*
X143986400Y-103135956D01*
X143987679Y-103114739D01*
X143999991Y-103057323D01*
X144022520Y-102997413D01*
X144051750Y-102943363D01*
X144084167Y-102903532D01*
X144103708Y-102886510D01*
X144158420Y-102847322D01*
X144218723Y-102817193D01*
X144287919Y-102795232D01*
X144369311Y-102780550D01*
X144466200Y-102772259D01*
X144581889Y-102769467D01*
X144621371Y-102769066D01*
X144667082Y-102768653D01*
X144702883Y-102770457D01*
X144729974Y-102776739D01*
X144749556Y-102789759D01*
X144762830Y-102811778D01*
X144770998Y-102845055D01*
X144775260Y-102891851D01*
X144775857Y-102915822D01*
X144776817Y-102954427D01*
G37*
X139831893Y-102767892D02*
X139843301Y-102774029D01*
X139853850Y-102784691D01*
X139865136Y-102798811D01*
X139869589Y-102804772D01*
X139875588Y-102815268D01*
X139880167Y-102829093D01*
X139883519Y-102848998D01*
X139885833Y-102877732D01*
X139887301Y-102918045D01*
X139888113Y-102972687D01*
X139888460Y-103044407D01*
X139888534Y-103135956D01*
X139888511Y-103194486D01*
X139888292Y-103273573D01*
X139887683Y-103334516D01*
X139886492Y-103380062D01*
X139884529Y-103412963D01*
X139881603Y-103435968D01*
X139877523Y-103451826D01*
X139872097Y-103463286D01*
X139865136Y-103473100D01*
X139834708Y-103497493D01*
X139799765Y-103500372D01*
X139762784Y-103481282D01*
X139758600Y-103477807D01*
X139750424Y-103469279D01*
X139744364Y-103457728D01*
X139739981Y-103439896D01*
X139736839Y-103412524D01*
X139734502Y-103372354D01*
X139732531Y-103316128D01*
X139730489Y-103240589D01*
X139724845Y-103021458D01*
X139459556Y-103262099D01*
X139385722Y-103328875D01*
X139320542Y-103386991D01*
X139268348Y-103431949D01*
X139227273Y-103464871D01*
X139195455Y-103486879D01*
X139171026Y-103499094D01*
X139152124Y-103502639D01*
X139136883Y-103498636D01*
X139123439Y-103488207D01*
X139109927Y-103472474D01*
X139103682Y-103463991D01*
X139098050Y-103453413D01*
X139093839Y-103439255D01*
X139090887Y-103418803D01*
X139089032Y-103389342D01*
X139088113Y-103348161D01*
X139087968Y-103292544D01*
X139088435Y-103219779D01*
X139089352Y-103127151D01*
X139092667Y-102812199D01*
X139119318Y-102790633D01*
X139145383Y-102774441D01*
X139178241Y-102771670D01*
X139212772Y-102790623D01*
X139217084Y-102794208D01*
X139225216Y-102802737D01*
X139231245Y-102814329D01*
X139235606Y-102832235D01*
X139238734Y-102859706D01*
X139241063Y-102899994D01*
X139243029Y-102956351D01*
X139245067Y-103032029D01*
X139250711Y-103251878D01*
X139431334Y-103088084D01*
X139518072Y-103009451D01*
X139593843Y-102941058D01*
X139655980Y-102885708D01*
X139706078Y-102842338D01*
X139745735Y-102809881D01*
X139776548Y-102787273D01*
X139800114Y-102773448D01*
X139818030Y-102767343D01*
X139831893Y-102767892D01*
G36*
X139831893Y-102767892D02*
G01*
X139843301Y-102774029D01*
X139853850Y-102784691D01*
X139865136Y-102798811D01*
X139869589Y-102804772D01*
X139875588Y-102815268D01*
X139880167Y-102829093D01*
X139883519Y-102848998D01*
X139885833Y-102877732D01*
X139887301Y-102918045D01*
X139888113Y-102972687D01*
X139888460Y-103044407D01*
X139888534Y-103135956D01*
X139888511Y-103194486D01*
X139888292Y-103273573D01*
X139887683Y-103334516D01*
X139886492Y-103380062D01*
X139884529Y-103412963D01*
X139881603Y-103435968D01*
X139877523Y-103451826D01*
X139872097Y-103463286D01*
X139865136Y-103473100D01*
X139834708Y-103497493D01*
X139799765Y-103500372D01*
X139762784Y-103481282D01*
X139758600Y-103477807D01*
X139750424Y-103469279D01*
X139744364Y-103457728D01*
X139739981Y-103439896D01*
X139736839Y-103412524D01*
X139734502Y-103372354D01*
X139732531Y-103316128D01*
X139730489Y-103240589D01*
X139724845Y-103021458D01*
X139459556Y-103262099D01*
X139385722Y-103328875D01*
X139320542Y-103386991D01*
X139268348Y-103431949D01*
X139227273Y-103464871D01*
X139195455Y-103486879D01*
X139171026Y-103499094D01*
X139152124Y-103502639D01*
X139136883Y-103498636D01*
X139123439Y-103488207D01*
X139109927Y-103472474D01*
X139103682Y-103463991D01*
X139098050Y-103453413D01*
X139093839Y-103439255D01*
X139090887Y-103418803D01*
X139089032Y-103389342D01*
X139088113Y-103348161D01*
X139087968Y-103292544D01*
X139088435Y-103219779D01*
X139089352Y-103127151D01*
X139092667Y-102812199D01*
X139119318Y-102790633D01*
X139145383Y-102774441D01*
X139178241Y-102771670D01*
X139212772Y-102790623D01*
X139217084Y-102794208D01*
X139225216Y-102802737D01*
X139231245Y-102814329D01*
X139235606Y-102832235D01*
X139238734Y-102859706D01*
X139241063Y-102899994D01*
X139243029Y-102956351D01*
X139245067Y-103032029D01*
X139250711Y-103251878D01*
X139431334Y-103088084D01*
X139518072Y-103009451D01*
X139593843Y-102941058D01*
X139655980Y-102885708D01*
X139706078Y-102842338D01*
X139745735Y-102809881D01*
X139776548Y-102787273D01*
X139800114Y-102773448D01*
X139818030Y-102767343D01*
X139831893Y-102767892D01*
G37*
X140629150Y-102774179D02*
X140735157Y-102790494D01*
X140828969Y-102818545D01*
X140907765Y-102857452D01*
X140968719Y-102906334D01*
X140994789Y-102939195D01*
X141024297Y-102988394D01*
X141049568Y-103042252D01*
X141067218Y-103093419D01*
X141073858Y-103134544D01*
X141072298Y-103154259D01*
X141059357Y-103205592D01*
X141036194Y-103262118D01*
X141006302Y-103316035D01*
X140973173Y-103359539D01*
X140962977Y-103369887D01*
X140895892Y-103421662D01*
X140815766Y-103461554D01*
X140729556Y-103485956D01*
X140674592Y-103494068D01*
X140581139Y-103500673D01*
X140491358Y-103498586D01*
X140408869Y-103488340D01*
X140337286Y-103470470D01*
X140280228Y-103445508D01*
X140241311Y-103413988D01*
X140239936Y-103412012D01*
X140232848Y-103386786D01*
X140228609Y-103339535D01*
X140227200Y-103270071D01*
X140228060Y-103207838D01*
X140232780Y-103160456D01*
X140244470Y-103128353D01*
X140266239Y-103108800D01*
X140301198Y-103099070D01*
X140352456Y-103096433D01*
X140423123Y-103098161D01*
X140471743Y-103101173D01*
X140521939Y-103109366D01*
X140554433Y-103123419D01*
X140571892Y-103144654D01*
X140576983Y-103174394D01*
X140576877Y-103178936D01*
X140568175Y-103213730D01*
X140544165Y-103237147D01*
X140502900Y-103250347D01*
X140442431Y-103254489D01*
X140373956Y-103254489D01*
X140373956Y-103292841D01*
X140374006Y-103301976D01*
X140376227Y-103319227D01*
X140385494Y-103329521D01*
X140406875Y-103336459D01*
X140445436Y-103343641D01*
X140450910Y-103344575D01*
X140547860Y-103354478D01*
X140637852Y-103351559D01*
X140718760Y-103336829D01*
X140788459Y-103311299D01*
X140844824Y-103275978D01*
X140885729Y-103231879D01*
X140909051Y-103180012D01*
X140912663Y-103121388D01*
X140907145Y-103092494D01*
X140880461Y-103036604D01*
X140834273Y-102990945D01*
X140769291Y-102956108D01*
X140686229Y-102932690D01*
X140661555Y-102928241D01*
X140572226Y-102917742D01*
X140492419Y-102918971D01*
X140414326Y-102931906D01*
X140379183Y-102938696D01*
X140333745Y-102939713D01*
X140302430Y-102927182D01*
X140282277Y-102900395D01*
X140275893Y-102872148D01*
X140285379Y-102840924D01*
X140294708Y-102827499D01*
X140328943Y-102803967D01*
X140381565Y-102786095D01*
X140450081Y-102774599D01*
X140532000Y-102770192D01*
X140629150Y-102774179D01*
G36*
X140629150Y-102774179D02*
G01*
X140735157Y-102790494D01*
X140828969Y-102818545D01*
X140907765Y-102857452D01*
X140968719Y-102906334D01*
X140994789Y-102939195D01*
X141024297Y-102988394D01*
X141049568Y-103042252D01*
X141067218Y-103093419D01*
X141073858Y-103134544D01*
X141072298Y-103154259D01*
X141059357Y-103205592D01*
X141036194Y-103262118D01*
X141006302Y-103316035D01*
X140973173Y-103359539D01*
X140962977Y-103369887D01*
X140895892Y-103421662D01*
X140815766Y-103461554D01*
X140729556Y-103485956D01*
X140674592Y-103494068D01*
X140581139Y-103500673D01*
X140491358Y-103498586D01*
X140408869Y-103488340D01*
X140337286Y-103470470D01*
X140280228Y-103445508D01*
X140241311Y-103413988D01*
X140239936Y-103412012D01*
X140232848Y-103386786D01*
X140228609Y-103339535D01*
X140227200Y-103270071D01*
X140228060Y-103207838D01*
X140232780Y-103160456D01*
X140244470Y-103128353D01*
X140266239Y-103108800D01*
X140301198Y-103099070D01*
X140352456Y-103096433D01*
X140423123Y-103098161D01*
X140471743Y-103101173D01*
X140521939Y-103109366D01*
X140554433Y-103123419D01*
X140571892Y-103144654D01*
X140576983Y-103174394D01*
X140576877Y-103178936D01*
X140568175Y-103213730D01*
X140544165Y-103237147D01*
X140502900Y-103250347D01*
X140442431Y-103254489D01*
X140373956Y-103254489D01*
X140373956Y-103292841D01*
X140374006Y-103301976D01*
X140376227Y-103319227D01*
X140385494Y-103329521D01*
X140406875Y-103336459D01*
X140445436Y-103343641D01*
X140450910Y-103344575D01*
X140547860Y-103354478D01*
X140637852Y-103351559D01*
X140718760Y-103336829D01*
X140788459Y-103311299D01*
X140844824Y-103275978D01*
X140885729Y-103231879D01*
X140909051Y-103180012D01*
X140912663Y-103121388D01*
X140907145Y-103092494D01*
X140880461Y-103036604D01*
X140834273Y-102990945D01*
X140769291Y-102956108D01*
X140686229Y-102932690D01*
X140661555Y-102928241D01*
X140572226Y-102917742D01*
X140492419Y-102918971D01*
X140414326Y-102931906D01*
X140379183Y-102938696D01*
X140333745Y-102939713D01*
X140302430Y-102927182D01*
X140282277Y-102900395D01*
X140275893Y-102872148D01*
X140285379Y-102840924D01*
X140294708Y-102827499D01*
X140328943Y-102803967D01*
X140381565Y-102786095D01*
X140450081Y-102774599D01*
X140532000Y-102770192D01*
X140629150Y-102774179D01*
G37*
X138679803Y-102798811D02*
X138684752Y-102805495D01*
X138690596Y-102816066D01*
X138695057Y-102830153D01*
X138698321Y-102850478D01*
X138700574Y-102879765D01*
X138702002Y-102920737D01*
X138702792Y-102976117D01*
X138703129Y-103048628D01*
X138703200Y-103140994D01*
X138703171Y-103206911D01*
X138702939Y-103285228D01*
X138702319Y-103345496D01*
X138701126Y-103390393D01*
X138699179Y-103422602D01*
X138696294Y-103444800D01*
X138692288Y-103459669D01*
X138686979Y-103469889D01*
X138680183Y-103478138D01*
X138675668Y-103482795D01*
X138667438Y-103489282D01*
X138656078Y-103494194D01*
X138638810Y-103497749D01*
X138612855Y-103500167D01*
X138575436Y-103501667D01*
X138523773Y-103502467D01*
X138455089Y-103502787D01*
X138366606Y-103502845D01*
X138346931Y-103502838D01*
X138259906Y-103502572D01*
X138192254Y-103501806D01*
X138141299Y-103500392D01*
X138104367Y-103498180D01*
X138078783Y-103495022D01*
X138061871Y-103490769D01*
X138050957Y-103485271D01*
X138040464Y-103475285D01*
X138027203Y-103444168D01*
X138028386Y-103408280D01*
X138044550Y-103376733D01*
X138046739Y-103374457D01*
X138055427Y-103368189D01*
X138068769Y-103363523D01*
X138089752Y-103360227D01*
X138121363Y-103358068D01*
X138166590Y-103356814D01*
X138228420Y-103356231D01*
X138309839Y-103356089D01*
X138556445Y-103356089D01*
X138556445Y-103198045D01*
X138394006Y-103198045D01*
X138358338Y-103197964D01*
X138302568Y-103197167D01*
X138263430Y-103195162D01*
X138236976Y-103191521D01*
X138219259Y-103185812D01*
X138206329Y-103177607D01*
X138202686Y-103174423D01*
X138184278Y-103143448D01*
X138183644Y-103107112D01*
X138201183Y-103073493D01*
X138201245Y-103073424D01*
X138210916Y-103064798D01*
X138224209Y-103058742D01*
X138244917Y-103054811D01*
X138276828Y-103052556D01*
X138323734Y-103051531D01*
X138389424Y-103051289D01*
X138557571Y-103051289D01*
X138554186Y-102986378D01*
X138550800Y-102921467D01*
X138308723Y-102918414D01*
X138283707Y-102918086D01*
X138202087Y-102916606D01*
X138139768Y-102914222D01*
X138094154Y-102910227D01*
X138062652Y-102903913D01*
X138042667Y-102894574D01*
X138031604Y-102881503D01*
X138026869Y-102863992D01*
X138025867Y-102841335D01*
X138025873Y-102838970D01*
X138027027Y-102818939D01*
X138031824Y-102803146D01*
X138042632Y-102791090D01*
X138061817Y-102782267D01*
X138091745Y-102776175D01*
X138134783Y-102772311D01*
X138193299Y-102770174D01*
X138269657Y-102769260D01*
X138366226Y-102769067D01*
X138656406Y-102769067D01*
X138679803Y-102798811D01*
G36*
X138679803Y-102798811D02*
G01*
X138684752Y-102805495D01*
X138690596Y-102816066D01*
X138695057Y-102830153D01*
X138698321Y-102850478D01*
X138700574Y-102879765D01*
X138702002Y-102920737D01*
X138702792Y-102976117D01*
X138703129Y-103048628D01*
X138703200Y-103140994D01*
X138703171Y-103206911D01*
X138702939Y-103285228D01*
X138702319Y-103345496D01*
X138701126Y-103390393D01*
X138699179Y-103422602D01*
X138696294Y-103444800D01*
X138692288Y-103459669D01*
X138686979Y-103469889D01*
X138680183Y-103478138D01*
X138675668Y-103482795D01*
X138667438Y-103489282D01*
X138656078Y-103494194D01*
X138638810Y-103497749D01*
X138612855Y-103500167D01*
X138575436Y-103501667D01*
X138523773Y-103502467D01*
X138455089Y-103502787D01*
X138366606Y-103502845D01*
X138346931Y-103502838D01*
X138259906Y-103502572D01*
X138192254Y-103501806D01*
X138141299Y-103500392D01*
X138104367Y-103498180D01*
X138078783Y-103495022D01*
X138061871Y-103490769D01*
X138050957Y-103485271D01*
X138040464Y-103475285D01*
X138027203Y-103444168D01*
X138028386Y-103408280D01*
X138044550Y-103376733D01*
X138046739Y-103374457D01*
X138055427Y-103368189D01*
X138068769Y-103363523D01*
X138089752Y-103360227D01*
X138121363Y-103358068D01*
X138166590Y-103356814D01*
X138228420Y-103356231D01*
X138309839Y-103356089D01*
X138556445Y-103356089D01*
X138556445Y-103198045D01*
X138394006Y-103198045D01*
X138358338Y-103197964D01*
X138302568Y-103197167D01*
X138263430Y-103195162D01*
X138236976Y-103191521D01*
X138219259Y-103185812D01*
X138206329Y-103177607D01*
X138202686Y-103174423D01*
X138184278Y-103143448D01*
X138183644Y-103107112D01*
X138201183Y-103073493D01*
X138201245Y-103073424D01*
X138210916Y-103064798D01*
X138224209Y-103058742D01*
X138244917Y-103054811D01*
X138276828Y-103052556D01*
X138323734Y-103051531D01*
X138389424Y-103051289D01*
X138557571Y-103051289D01*
X138554186Y-102986378D01*
X138550800Y-102921467D01*
X138308723Y-102918414D01*
X138283707Y-102918086D01*
X138202087Y-102916606D01*
X138139768Y-102914222D01*
X138094154Y-102910227D01*
X138062652Y-102903913D01*
X138042667Y-102894574D01*
X138031604Y-102881503D01*
X138026869Y-102863992D01*
X138025867Y-102841335D01*
X138025873Y-102838970D01*
X138027027Y-102818939D01*
X138031824Y-102803146D01*
X138042632Y-102791090D01*
X138061817Y-102782267D01*
X138091745Y-102776175D01*
X138134783Y-102772311D01*
X138193299Y-102770174D01*
X138269657Y-102769260D01*
X138366226Y-102769067D01*
X138656406Y-102769067D01*
X138679803Y-102798811D01*
G37*
X143356734Y-102769083D02*
X143433831Y-102769275D01*
X143492777Y-102769860D01*
X143536364Y-102771051D01*
X143567383Y-102773064D01*
X143588625Y-102776112D01*
X143602882Y-102780409D01*
X143612945Y-102786172D01*
X143621606Y-102793612D01*
X143623391Y-102795293D01*
X143630635Y-102802832D01*
X143636277Y-102811850D01*
X143640517Y-102824984D01*
X143643556Y-102844872D01*
X143645594Y-102874151D01*
X143646830Y-102915458D01*
X143647465Y-102971431D01*
X143647700Y-103044707D01*
X143647734Y-103137923D01*
X143647697Y-103210713D01*
X143647448Y-103288889D01*
X143646812Y-103349103D01*
X143645615Y-103393982D01*
X143643684Y-103426152D01*
X143640846Y-103448239D01*
X143636927Y-103462870D01*
X143631755Y-103472670D01*
X143625156Y-103480267D01*
X143621822Y-103483444D01*
X143613300Y-103489554D01*
X143601298Y-103494229D01*
X143583087Y-103497659D01*
X143555940Y-103500036D01*
X143517129Y-103501552D01*
X143463924Y-103502398D01*
X143393598Y-103502765D01*
X143303422Y-103502845D01*
X143261314Y-103502833D01*
X143180167Y-103502651D01*
X143117675Y-103502098D01*
X143071109Y-103500982D01*
X143037741Y-103499113D01*
X143014844Y-103496298D01*
X142999688Y-103492346D01*
X142989546Y-103487066D01*
X142981689Y-103480267D01*
X142966963Y-103458667D01*
X142959111Y-103429467D01*
X142964610Y-103405560D01*
X142981689Y-103378667D01*
X142986668Y-103374059D01*
X142996443Y-103367772D01*
X143010559Y-103363146D01*
X143032054Y-103359930D01*
X143063968Y-103357870D01*
X143109342Y-103356712D01*
X143171213Y-103356202D01*
X143252622Y-103356089D01*
X143500978Y-103356089D01*
X143500978Y-103198045D01*
X143339801Y-103198045D01*
X143303983Y-103197899D01*
X143238359Y-103196176D01*
X143191118Y-103191741D01*
X143159383Y-103183637D01*
X143140277Y-103170906D01*
X143130923Y-103152592D01*
X143128445Y-103127738D01*
X143129242Y-103107482D01*
X143134494Y-103085656D01*
X143147288Y-103070304D01*
X143170628Y-103060309D01*
X143207517Y-103054553D01*
X143260959Y-103051919D01*
X143333958Y-103051289D01*
X143502105Y-103051289D01*
X143498719Y-102986378D01*
X143495334Y-102921467D01*
X143247617Y-102918418D01*
X143185026Y-102917539D01*
X143116565Y-102916095D01*
X143065661Y-102914164D01*
X143029408Y-102911514D01*
X143004901Y-102907910D01*
X142989235Y-102903121D01*
X142979506Y-102896913D01*
X142973491Y-102890510D01*
X142960482Y-102858828D01*
X142964043Y-102823142D01*
X142983818Y-102792084D01*
X142987069Y-102789161D01*
X142996049Y-102782810D01*
X143008153Y-102777957D01*
X143026159Y-102774403D01*
X143052847Y-102771946D01*
X143090997Y-102770385D01*
X143143386Y-102769518D01*
X143212794Y-102769146D01*
X143302001Y-102769067D01*
X143356734Y-102769083D01*
G36*
X143356734Y-102769083D02*
G01*
X143433831Y-102769275D01*
X143492777Y-102769860D01*
X143536364Y-102771051D01*
X143567383Y-102773064D01*
X143588625Y-102776112D01*
X143602882Y-102780409D01*
X143612945Y-102786172D01*
X143621606Y-102793612D01*
X143623391Y-102795293D01*
X143630635Y-102802832D01*
X143636277Y-102811850D01*
X143640517Y-102824984D01*
X143643556Y-102844872D01*
X143645594Y-102874151D01*
X143646830Y-102915458D01*
X143647465Y-102971431D01*
X143647700Y-103044707D01*
X143647734Y-103137923D01*
X143647697Y-103210713D01*
X143647448Y-103288889D01*
X143646812Y-103349103D01*
X143645615Y-103393982D01*
X143643684Y-103426152D01*
X143640846Y-103448239D01*
X143636927Y-103462870D01*
X143631755Y-103472670D01*
X143625156Y-103480267D01*
X143621822Y-103483444D01*
X143613300Y-103489554D01*
X143601298Y-103494229D01*
X143583087Y-103497659D01*
X143555940Y-103500036D01*
X143517129Y-103501552D01*
X143463924Y-103502398D01*
X143393598Y-103502765D01*
X143303422Y-103502845D01*
X143261314Y-103502833D01*
X143180167Y-103502651D01*
X143117675Y-103502098D01*
X143071109Y-103500982D01*
X143037741Y-103499113D01*
X143014844Y-103496298D01*
X142999688Y-103492346D01*
X142989546Y-103487066D01*
X142981689Y-103480267D01*
X142966963Y-103458667D01*
X142959111Y-103429467D01*
X142964610Y-103405560D01*
X142981689Y-103378667D01*
X142986668Y-103374059D01*
X142996443Y-103367772D01*
X143010559Y-103363146D01*
X143032054Y-103359930D01*
X143063968Y-103357870D01*
X143109342Y-103356712D01*
X143171213Y-103356202D01*
X143252622Y-103356089D01*
X143500978Y-103356089D01*
X143500978Y-103198045D01*
X143339801Y-103198045D01*
X143303983Y-103197899D01*
X143238359Y-103196176D01*
X143191118Y-103191741D01*
X143159383Y-103183637D01*
X143140277Y-103170906D01*
X143130923Y-103152592D01*
X143128445Y-103127738D01*
X143129242Y-103107482D01*
X143134494Y-103085656D01*
X143147288Y-103070304D01*
X143170628Y-103060309D01*
X143207517Y-103054553D01*
X143260959Y-103051919D01*
X143333958Y-103051289D01*
X143502105Y-103051289D01*
X143498719Y-102986378D01*
X143495334Y-102921467D01*
X143247617Y-102918418D01*
X143185026Y-102917539D01*
X143116565Y-102916095D01*
X143065661Y-102914164D01*
X143029408Y-102911514D01*
X143004901Y-102907910D01*
X142989235Y-102903121D01*
X142979506Y-102896913D01*
X142973491Y-102890510D01*
X142960482Y-102858828D01*
X142964043Y-102823142D01*
X142983818Y-102792084D01*
X142987069Y-102789161D01*
X142996049Y-102782810D01*
X143008153Y-102777957D01*
X143026159Y-102774403D01*
X143052847Y-102771946D01*
X143090997Y-102770385D01*
X143143386Y-102769518D01*
X143212794Y-102769146D01*
X143302001Y-102769067D01*
X143356734Y-102769083D01*
G37*
X134789702Y-102778478D02*
X134807663Y-102796989D01*
X134828263Y-102828071D01*
X134853095Y-102873756D01*
X134883750Y-102936078D01*
X134921820Y-103017071D01*
X134936454Y-103048454D01*
X134966203Y-103111638D01*
X134992297Y-103166244D01*
X135013292Y-103209290D01*
X135027739Y-103237793D01*
X135034191Y-103248770D01*
X135035550Y-103248189D01*
X135045542Y-103234242D01*
X135062833Y-103204704D01*
X135085430Y-103163087D01*
X135111338Y-103112903D01*
X135127311Y-103081414D01*
X135156261Y-103026061D01*
X135178749Y-102987044D01*
X135196965Y-102961566D01*
X135213096Y-102946831D01*
X135229330Y-102940042D01*
X135247857Y-102938400D01*
X135258360Y-102938875D01*
X135274476Y-102943082D01*
X135289790Y-102953946D01*
X135306388Y-102974219D01*
X135326357Y-103006654D01*
X135351783Y-103054004D01*
X135384752Y-103119022D01*
X135394485Y-103138277D01*
X135418943Y-103184946D01*
X135439178Y-103221109D01*
X135453311Y-103243497D01*
X135459460Y-103248845D01*
X135460827Y-103245573D01*
X135470202Y-103224664D01*
X135487062Y-103187725D01*
X135509979Y-103137874D01*
X135537520Y-103078226D01*
X135568255Y-103011898D01*
X135594970Y-102954677D01*
X135624593Y-102892688D01*
X135647664Y-102846949D01*
X135665643Y-102814908D01*
X135679990Y-102794014D01*
X135692166Y-102781718D01*
X135703632Y-102775466D01*
X135713042Y-102772574D01*
X135738147Y-102772425D01*
X135765290Y-102787768D01*
X135766590Y-102788753D01*
X135788674Y-102811388D01*
X135799723Y-102833613D01*
X135799769Y-102834253D01*
X135795228Y-102851915D01*
X135782364Y-102886481D01*
X135762605Y-102934826D01*
X135737381Y-102993825D01*
X135708119Y-103060355D01*
X135676250Y-103131291D01*
X135643201Y-103203507D01*
X135610401Y-103273880D01*
X135579280Y-103339285D01*
X135551265Y-103396597D01*
X135527786Y-103442692D01*
X135510272Y-103474446D01*
X135500151Y-103488733D01*
X135465743Y-103502102D01*
X135424046Y-103495741D01*
X135418681Y-103491044D01*
X135402852Y-103468893D01*
X135380650Y-103432132D01*
X135354233Y-103384415D01*
X135325760Y-103329393D01*
X135245986Y-103170150D01*
X135172799Y-103316742D01*
X135163103Y-103336032D01*
X135136125Y-103388380D01*
X135112096Y-103433170D01*
X135093332Y-103466154D01*
X135082146Y-103483089D01*
X135081000Y-103484332D01*
X135052879Y-103499619D01*
X135017817Y-103501302D01*
X134986776Y-103488733D01*
X134984350Y-103485884D01*
X134972090Y-103465259D01*
X134952352Y-103427708D01*
X134926448Y-103375880D01*
X134895685Y-103312423D01*
X134861375Y-103239985D01*
X134824825Y-103161216D01*
X134804585Y-103117093D01*
X134767812Y-103036365D01*
X134739355Y-102972687D01*
X134718331Y-102923752D01*
X134703854Y-102887257D01*
X134695039Y-102860895D01*
X134691004Y-102842361D01*
X134690862Y-102829352D01*
X134693730Y-102819561D01*
X134708387Y-102798678D01*
X134734990Y-102778377D01*
X134735745Y-102778035D01*
X134755335Y-102771034D01*
X134772790Y-102770504D01*
X134789702Y-102778478D01*
G36*
X134789702Y-102778478D02*
G01*
X134807663Y-102796989D01*
X134828263Y-102828071D01*
X134853095Y-102873756D01*
X134883750Y-102936078D01*
X134921820Y-103017071D01*
X134936454Y-103048454D01*
X134966203Y-103111638D01*
X134992297Y-103166244D01*
X135013292Y-103209290D01*
X135027739Y-103237793D01*
X135034191Y-103248770D01*
X135035550Y-103248189D01*
X135045542Y-103234242D01*
X135062833Y-103204704D01*
X135085430Y-103163087D01*
X135111338Y-103112903D01*
X135127311Y-103081414D01*
X135156261Y-103026061D01*
X135178749Y-102987044D01*
X135196965Y-102961566D01*
X135213096Y-102946831D01*
X135229330Y-102940042D01*
X135247857Y-102938400D01*
X135258360Y-102938875D01*
X135274476Y-102943082D01*
X135289790Y-102953946D01*
X135306388Y-102974219D01*
X135326357Y-103006654D01*
X135351783Y-103054004D01*
X135384752Y-103119022D01*
X135394485Y-103138277D01*
X135418943Y-103184946D01*
X135439178Y-103221109D01*
X135453311Y-103243497D01*
X135459460Y-103248845D01*
X135460827Y-103245573D01*
X135470202Y-103224664D01*
X135487062Y-103187725D01*
X135509979Y-103137874D01*
X135537520Y-103078226D01*
X135568255Y-103011898D01*
X135594970Y-102954677D01*
X135624593Y-102892688D01*
X135647664Y-102846949D01*
X135665643Y-102814908D01*
X135679990Y-102794014D01*
X135692166Y-102781718D01*
X135703632Y-102775466D01*
X135713042Y-102772574D01*
X135738147Y-102772425D01*
X135765290Y-102787768D01*
X135766590Y-102788753D01*
X135788674Y-102811388D01*
X135799723Y-102833613D01*
X135799769Y-102834253D01*
X135795228Y-102851915D01*
X135782364Y-102886481D01*
X135762605Y-102934826D01*
X135737381Y-102993825D01*
X135708119Y-103060355D01*
X135676250Y-103131291D01*
X135643201Y-103203507D01*
X135610401Y-103273880D01*
X135579280Y-103339285D01*
X135551265Y-103396597D01*
X135527786Y-103442692D01*
X135510272Y-103474446D01*
X135500151Y-103488733D01*
X135465743Y-103502102D01*
X135424046Y-103495741D01*
X135418681Y-103491044D01*
X135402852Y-103468893D01*
X135380650Y-103432132D01*
X135354233Y-103384415D01*
X135325760Y-103329393D01*
X135245986Y-103170150D01*
X135172799Y-103316742D01*
X135163103Y-103336032D01*
X135136125Y-103388380D01*
X135112096Y-103433170D01*
X135093332Y-103466154D01*
X135082146Y-103483089D01*
X135081000Y-103484332D01*
X135052879Y-103499619D01*
X135017817Y-103501302D01*
X134986776Y-103488733D01*
X134984350Y-103485884D01*
X134972090Y-103465259D01*
X134952352Y-103427708D01*
X134926448Y-103375880D01*
X134895685Y-103312423D01*
X134861375Y-103239985D01*
X134824825Y-103161216D01*
X134804585Y-103117093D01*
X134767812Y-103036365D01*
X134739355Y-102972687D01*
X134718331Y-102923752D01*
X134703854Y-102887257D01*
X134695039Y-102860895D01*
X134691004Y-102842361D01*
X134690862Y-102829352D01*
X134693730Y-102819561D01*
X134708387Y-102798678D01*
X134734990Y-102778377D01*
X134735745Y-102778035D01*
X134755335Y-102771034D01*
X134772790Y-102770504D01*
X134789702Y-102778478D01*
G37*
X142340853Y-102769936D02*
X142407100Y-102775366D01*
X142462400Y-102784964D01*
X142513283Y-102799825D01*
X142584595Y-102832958D01*
X142635752Y-102875640D01*
X142666575Y-102927705D01*
X142676889Y-102988983D01*
X142675952Y-103020232D01*
X142670160Y-103045029D01*
X142655353Y-103066699D01*
X142627380Y-103094049D01*
X142619402Y-103101378D01*
X142595692Y-103122281D01*
X142573298Y-103139251D01*
X142549265Y-103153205D01*
X142520637Y-103165056D01*
X142484460Y-103175720D01*
X142437780Y-103186111D01*
X142377641Y-103197146D01*
X142301090Y-103209738D01*
X142205171Y-103224804D01*
X142186808Y-103227838D01*
X142124478Y-103241458D01*
X142079260Y-103257192D01*
X142052976Y-103274263D01*
X142047447Y-103291897D01*
X142050068Y-103296168D01*
X142068000Y-103311233D01*
X142096126Y-103327867D01*
X142108926Y-103333857D01*
X142130224Y-103341050D01*
X142156610Y-103345827D01*
X142192454Y-103348646D01*
X142242128Y-103349964D01*
X142310000Y-103350237D01*
X142327785Y-103350164D01*
X142395406Y-103349053D01*
X142460345Y-103346828D01*
X142515970Y-103343762D01*
X142555651Y-103340127D01*
X142591162Y-103336059D01*
X142620415Y-103335276D01*
X142639315Y-103339876D01*
X142654429Y-103350551D01*
X142658085Y-103354144D01*
X142674427Y-103385918D01*
X142673107Y-103421572D01*
X142654150Y-103452190D01*
X142633780Y-103463796D01*
X142597796Y-103476491D01*
X142555372Y-103486541D01*
X142551922Y-103487140D01*
X142509252Y-103492356D01*
X142451866Y-103496730D01*
X142386849Y-103499818D01*
X142321289Y-103501177D01*
X142305057Y-103501218D01*
X142206744Y-103498741D01*
X142126692Y-103490735D01*
X142061513Y-103476203D01*
X142007817Y-103454149D01*
X141962216Y-103423576D01*
X141921323Y-103383486D01*
X141901202Y-103357259D01*
X141889576Y-103327712D01*
X141886667Y-103287995D01*
X141886808Y-103276026D01*
X141890681Y-103243345D01*
X141903065Y-103216819D01*
X141928230Y-103185971D01*
X141949442Y-103163831D01*
X141975838Y-103141285D01*
X142005555Y-103122917D01*
X142041785Y-103107661D01*
X142087717Y-103094449D01*
X142146544Y-103082214D01*
X142221456Y-103069889D01*
X142315645Y-103056406D01*
X142360957Y-103049396D01*
X142428911Y-103034837D01*
X142478047Y-103018337D01*
X142507614Y-103000439D01*
X142516864Y-102981685D01*
X142505048Y-102962615D01*
X142471416Y-102943771D01*
X142468370Y-102942557D01*
X142422011Y-102930479D01*
X142359361Y-102922279D01*
X142285927Y-102918119D01*
X142207217Y-102918161D01*
X142128739Y-102922569D01*
X142056000Y-102931505D01*
X142052073Y-102932154D01*
X142003257Y-102939861D01*
X141971005Y-102943473D01*
X141950008Y-102942876D01*
X141934954Y-102937954D01*
X141920534Y-102928596D01*
X141919364Y-102927725D01*
X141894847Y-102897351D01*
X141890054Y-102861850D01*
X141905860Y-102827269D01*
X141910406Y-102822813D01*
X141940020Y-102807673D01*
X141987002Y-102794550D01*
X142047306Y-102783750D01*
X142116888Y-102775581D01*
X142191703Y-102770351D01*
X142267706Y-102768367D01*
X142340853Y-102769936D01*
G36*
X142340853Y-102769936D02*
G01*
X142407100Y-102775366D01*
X142462400Y-102784964D01*
X142513283Y-102799825D01*
X142584595Y-102832958D01*
X142635752Y-102875640D01*
X142666575Y-102927705D01*
X142676889Y-102988983D01*
X142675952Y-103020232D01*
X142670160Y-103045029D01*
X142655353Y-103066699D01*
X142627380Y-103094049D01*
X142619402Y-103101378D01*
X142595692Y-103122281D01*
X142573298Y-103139251D01*
X142549265Y-103153205D01*
X142520637Y-103165056D01*
X142484460Y-103175720D01*
X142437780Y-103186111D01*
X142377641Y-103197146D01*
X142301090Y-103209738D01*
X142205171Y-103224804D01*
X142186808Y-103227838D01*
X142124478Y-103241458D01*
X142079260Y-103257192D01*
X142052976Y-103274263D01*
X142047447Y-103291897D01*
X142050068Y-103296168D01*
X142068000Y-103311233D01*
X142096126Y-103327867D01*
X142108926Y-103333857D01*
X142130224Y-103341050D01*
X142156610Y-103345827D01*
X142192454Y-103348646D01*
X142242128Y-103349964D01*
X142310000Y-103350237D01*
X142327785Y-103350164D01*
X142395406Y-103349053D01*
X142460345Y-103346828D01*
X142515970Y-103343762D01*
X142555651Y-103340127D01*
X142591162Y-103336059D01*
X142620415Y-103335276D01*
X142639315Y-103339876D01*
X142654429Y-103350551D01*
X142658085Y-103354144D01*
X142674427Y-103385918D01*
X142673107Y-103421572D01*
X142654150Y-103452190D01*
X142633780Y-103463796D01*
X142597796Y-103476491D01*
X142555372Y-103486541D01*
X142551922Y-103487140D01*
X142509252Y-103492356D01*
X142451866Y-103496730D01*
X142386849Y-103499818D01*
X142321289Y-103501177D01*
X142305057Y-103501218D01*
X142206744Y-103498741D01*
X142126692Y-103490735D01*
X142061513Y-103476203D01*
X142007817Y-103454149D01*
X141962216Y-103423576D01*
X141921323Y-103383486D01*
X141901202Y-103357259D01*
X141889576Y-103327712D01*
X141886667Y-103287995D01*
X141886808Y-103276026D01*
X141890681Y-103243345D01*
X141903065Y-103216819D01*
X141928230Y-103185971D01*
X141949442Y-103163831D01*
X141975838Y-103141285D01*
X142005555Y-103122917D01*
X142041785Y-103107661D01*
X142087717Y-103094449D01*
X142146544Y-103082214D01*
X142221456Y-103069889D01*
X142315645Y-103056406D01*
X142360957Y-103049396D01*
X142428911Y-103034837D01*
X142478047Y-103018337D01*
X142507614Y-103000439D01*
X142516864Y-102981685D01*
X142505048Y-102962615D01*
X142471416Y-102943771D01*
X142468370Y-102942557D01*
X142422011Y-102930479D01*
X142359361Y-102922279D01*
X142285927Y-102918119D01*
X142207217Y-102918161D01*
X142128739Y-102922569D01*
X142056000Y-102931505D01*
X142052073Y-102932154D01*
X142003257Y-102939861D01*
X141971005Y-102943473D01*
X141950008Y-102942876D01*
X141934954Y-102937954D01*
X141920534Y-102928596D01*
X141919364Y-102927725D01*
X141894847Y-102897351D01*
X141890054Y-102861850D01*
X141905860Y-102827269D01*
X141910406Y-102822813D01*
X141940020Y-102807673D01*
X141987002Y-102794550D01*
X142047306Y-102783750D01*
X142116888Y-102775581D01*
X142191703Y-102770351D01*
X142267706Y-102768367D01*
X142340853Y-102769936D01*
G37*
X138488711Y-98462033D02*
X138584268Y-98479523D01*
X138748558Y-98524564D01*
X138902589Y-98587656D01*
X139048509Y-98669915D01*
X139188466Y-98772457D01*
X139324608Y-98896399D01*
X139368473Y-98941661D01*
X139480758Y-99073865D01*
X139573972Y-99211832D01*
X139650719Y-99359750D01*
X139713603Y-99521803D01*
X139717420Y-99533391D01*
X139767507Y-99719392D01*
X139800899Y-99915521D01*
X139817584Y-100117568D01*
X139817551Y-100321325D01*
X139800791Y-100522581D01*
X139767292Y-100717128D01*
X139717044Y-100900756D01*
X139673190Y-101018053D01*
X139595348Y-101180951D01*
X139501828Y-101334866D01*
X139394822Y-101476671D01*
X139276519Y-101603239D01*
X139149111Y-101711441D01*
X139071606Y-101764120D01*
X138944725Y-101833750D01*
X138807243Y-101892468D01*
X138665716Y-101937587D01*
X138526702Y-101966422D01*
X138512597Y-101968106D01*
X138469153Y-101971434D01*
X138411723Y-101974275D01*
X138346122Y-101976373D01*
X138278167Y-101977468D01*
X138151378Y-101975140D01*
X138003673Y-101962136D01*
X137865779Y-101937133D01*
X137732014Y-101899318D01*
X137708562Y-101890889D01*
X137660612Y-101871408D01*
X137604140Y-101846473D01*
X137542379Y-101817722D01*
X137478563Y-101786790D01*
X137415926Y-101755315D01*
X137357703Y-101724934D01*
X137307127Y-101697283D01*
X137267433Y-101673999D01*
X137241854Y-101656718D01*
X137233625Y-101647079D01*
X137235076Y-101643984D01*
X137246250Y-101624079D01*
X137267134Y-101588420D01*
X137296265Y-101539459D01*
X137332181Y-101479646D01*
X137373420Y-101411433D01*
X137418517Y-101337271D01*
X137599785Y-101040008D01*
X137646315Y-101084539D01*
X137737723Y-101162865D01*
X137851334Y-101237439D01*
X137969122Y-101291474D01*
X138089559Y-101324290D01*
X138211117Y-101335211D01*
X138252585Y-101333868D01*
X138370080Y-101315612D01*
X138480089Y-101276617D01*
X138581430Y-101217670D01*
X138672921Y-101139557D01*
X138753380Y-101043064D01*
X138821627Y-100928978D01*
X138837908Y-100894724D01*
X138883982Y-100771240D01*
X138919106Y-100632918D01*
X138943197Y-100483561D01*
X138956173Y-100326973D01*
X138957949Y-100166956D01*
X138948443Y-100007314D01*
X138927572Y-99851850D01*
X138895252Y-99704366D01*
X138851399Y-99568667D01*
X138813982Y-99482076D01*
X138749185Y-99368688D01*
X138673772Y-99275070D01*
X138587418Y-99200959D01*
X138489795Y-99146094D01*
X138380577Y-99110212D01*
X138259439Y-99093051D01*
X138190038Y-99091880D01*
X138067168Y-99106141D01*
X137951664Y-99141241D01*
X137844953Y-99196682D01*
X137748464Y-99271964D01*
X137732720Y-99286440D01*
X137702150Y-99312962D01*
X137679809Y-99330138D01*
X137669691Y-99334787D01*
X137667706Y-99332597D01*
X137653241Y-99313721D01*
X137629400Y-99280397D01*
X137598029Y-99235380D01*
X137560974Y-99181425D01*
X137520083Y-99121285D01*
X137477202Y-99057718D01*
X137434178Y-98993476D01*
X137392857Y-98931315D01*
X137355086Y-98873991D01*
X137322712Y-98824257D01*
X137297582Y-98784868D01*
X137281542Y-98758580D01*
X137276439Y-98748147D01*
X137281050Y-98743941D01*
X137300267Y-98738933D01*
X137309838Y-98736386D01*
X137337809Y-98725249D01*
X137379448Y-98706802D01*
X137430995Y-98682725D01*
X137488690Y-98654699D01*
X137499957Y-98649154D01*
X137677687Y-98569889D01*
X137847490Y-98510385D01*
X138011430Y-98470245D01*
X138171571Y-98449071D01*
X138329977Y-98446466D01*
X138488711Y-98462033D01*
G36*
X138488711Y-98462033D02*
G01*
X138584268Y-98479523D01*
X138748558Y-98524564D01*
X138902589Y-98587656D01*
X139048509Y-98669915D01*
X139188466Y-98772457D01*
X139324608Y-98896399D01*
X139368473Y-98941661D01*
X139480758Y-99073865D01*
X139573972Y-99211832D01*
X139650719Y-99359750D01*
X139713603Y-99521803D01*
X139717420Y-99533391D01*
X139767507Y-99719392D01*
X139800899Y-99915521D01*
X139817584Y-100117568D01*
X139817551Y-100321325D01*
X139800791Y-100522581D01*
X139767292Y-100717128D01*
X139717044Y-100900756D01*
X139673190Y-101018053D01*
X139595348Y-101180951D01*
X139501828Y-101334866D01*
X139394822Y-101476671D01*
X139276519Y-101603239D01*
X139149111Y-101711441D01*
X139071606Y-101764120D01*
X138944725Y-101833750D01*
X138807243Y-101892468D01*
X138665716Y-101937587D01*
X138526702Y-101966422D01*
X138512597Y-101968106D01*
X138469153Y-101971434D01*
X138411723Y-101974275D01*
X138346122Y-101976373D01*
X138278167Y-101977468D01*
X138151378Y-101975140D01*
X138003673Y-101962136D01*
X137865779Y-101937133D01*
X137732014Y-101899318D01*
X137708562Y-101890889D01*
X137660612Y-101871408D01*
X137604140Y-101846473D01*
X137542379Y-101817722D01*
X137478563Y-101786790D01*
X137415926Y-101755315D01*
X137357703Y-101724934D01*
X137307127Y-101697283D01*
X137267433Y-101673999D01*
X137241854Y-101656718D01*
X137233625Y-101647079D01*
X137235076Y-101643984D01*
X137246250Y-101624079D01*
X137267134Y-101588420D01*
X137296265Y-101539459D01*
X137332181Y-101479646D01*
X137373420Y-101411433D01*
X137418517Y-101337271D01*
X137599785Y-101040008D01*
X137646315Y-101084539D01*
X137737723Y-101162865D01*
X137851334Y-101237439D01*
X137969122Y-101291474D01*
X138089559Y-101324290D01*
X138211117Y-101335211D01*
X138252585Y-101333868D01*
X138370080Y-101315612D01*
X138480089Y-101276617D01*
X138581430Y-101217670D01*
X138672921Y-101139557D01*
X138753380Y-101043064D01*
X138821627Y-100928978D01*
X138837908Y-100894724D01*
X138883982Y-100771240D01*
X138919106Y-100632918D01*
X138943197Y-100483561D01*
X138956173Y-100326973D01*
X138957949Y-100166956D01*
X138948443Y-100007314D01*
X138927572Y-99851850D01*
X138895252Y-99704366D01*
X138851399Y-99568667D01*
X138813982Y-99482076D01*
X138749185Y-99368688D01*
X138673772Y-99275070D01*
X138587418Y-99200959D01*
X138489795Y-99146094D01*
X138380577Y-99110212D01*
X138259439Y-99093051D01*
X138190038Y-99091880D01*
X138067168Y-99106141D01*
X137951664Y-99141241D01*
X137844953Y-99196682D01*
X137748464Y-99271964D01*
X137732720Y-99286440D01*
X137702150Y-99312962D01*
X137679809Y-99330138D01*
X137669691Y-99334787D01*
X137667706Y-99332597D01*
X137653241Y-99313721D01*
X137629400Y-99280397D01*
X137598029Y-99235380D01*
X137560974Y-99181425D01*
X137520083Y-99121285D01*
X137477202Y-99057718D01*
X137434178Y-98993476D01*
X137392857Y-98931315D01*
X137355086Y-98873991D01*
X137322712Y-98824257D01*
X137297582Y-98784868D01*
X137281542Y-98758580D01*
X137276439Y-98748147D01*
X137281050Y-98743941D01*
X137300267Y-98738933D01*
X137309838Y-98736386D01*
X137337809Y-98725249D01*
X137379448Y-98706802D01*
X137430995Y-98682725D01*
X137488690Y-98654699D01*
X137499957Y-98649154D01*
X137677687Y-98569889D01*
X137847490Y-98510385D01*
X138011430Y-98470245D01*
X138171571Y-98449071D01*
X138329977Y-98446466D01*
X138488711Y-98462033D01*
G37*
X134685994Y-100742711D02*
X134685268Y-100820158D01*
X134676689Y-100971594D01*
X134657833Y-101108283D01*
X134627837Y-101234276D01*
X134585836Y-101353625D01*
X134530969Y-101470381D01*
X134464167Y-101581179D01*
X134373363Y-101694739D01*
X134269708Y-101790211D01*
X134153887Y-101867073D01*
X134026586Y-101924797D01*
X133888489Y-101962858D01*
X133850793Y-101968666D01*
X133771752Y-101974396D01*
X133683629Y-101974583D01*
X133594236Y-101969539D01*
X133511384Y-101959578D01*
X133442887Y-101945012D01*
X133412035Y-101935364D01*
X133334730Y-101905123D01*
X133257679Y-101867617D01*
X133188200Y-101826614D01*
X133133615Y-101785879D01*
X133110916Y-101766505D01*
X133088201Y-101748662D01*
X133076779Y-101741778D01*
X133075537Y-101743424D01*
X133072728Y-101761205D01*
X133070776Y-101794370D01*
X133070045Y-101837733D01*
X133070045Y-101933689D01*
X132211896Y-101933689D01*
X132246161Y-101872974D01*
X132251355Y-101863868D01*
X132259715Y-101849249D01*
X132267288Y-101835173D01*
X132274112Y-101820540D01*
X132280227Y-101804249D01*
X132285673Y-101785198D01*
X132290487Y-101762286D01*
X132294708Y-101734413D01*
X132298377Y-101700478D01*
X132301531Y-101659379D01*
X132304211Y-101610015D01*
X132306454Y-101551286D01*
X132308299Y-101482090D01*
X132309787Y-101401326D01*
X132310955Y-101307894D01*
X132311844Y-101200692D01*
X132312491Y-101078620D01*
X132312936Y-100940576D01*
X132313218Y-100785459D01*
X132313375Y-100612168D01*
X132313448Y-100419603D01*
X132313474Y-100206662D01*
X132313485Y-100070530D01*
X133115200Y-100070530D01*
X133115200Y-101220721D01*
X133185756Y-101267089D01*
X133226417Y-101290791D01*
X133280546Y-101316639D01*
X133329689Y-101334829D01*
X133393165Y-101350551D01*
X133489331Y-101361541D01*
X133573900Y-101353365D01*
X133647219Y-101325805D01*
X133709637Y-101278642D01*
X133761502Y-101211658D01*
X133803160Y-101124633D01*
X133834962Y-101017350D01*
X133837545Y-101005009D01*
X133846000Y-100943772D01*
X133851663Y-100866692D01*
X133854576Y-100779002D01*
X133854783Y-100685934D01*
X133852330Y-100592720D01*
X133847261Y-100504594D01*
X133839619Y-100426788D01*
X133829448Y-100364533D01*
X133828167Y-100358666D01*
X133799126Y-100248121D01*
X133764610Y-100157575D01*
X133723456Y-100084953D01*
X133674499Y-100028181D01*
X133616574Y-99985184D01*
X133584620Y-99969615D01*
X133511784Y-99950722D01*
X133430443Y-99947465D01*
X133345319Y-99959389D01*
X133261133Y-99986040D01*
X133182608Y-100026962D01*
X133115200Y-100070530D01*
X132313485Y-100070530D01*
X132313493Y-99972245D01*
X132313689Y-98287378D01*
X133219017Y-98287378D01*
X133194585Y-98324067D01*
X133188318Y-98333647D01*
X133162208Y-98379981D01*
X133144469Y-98427102D01*
X133132908Y-98482251D01*
X133125331Y-98552667D01*
X133124839Y-98559650D01*
X133123062Y-98597641D01*
X133121444Y-98651576D01*
X133119999Y-98718703D01*
X133118740Y-98796271D01*
X133117680Y-98881528D01*
X133116829Y-98971724D01*
X133116203Y-99064107D01*
X133115812Y-99155925D01*
X133115670Y-99244427D01*
X133115790Y-99326862D01*
X133116183Y-99400479D01*
X133116862Y-99462526D01*
X133117841Y-99510251D01*
X133119132Y-99540904D01*
X133120747Y-99551733D01*
X133128957Y-99547333D01*
X133150647Y-99532362D01*
X133180014Y-99510448D01*
X133228879Y-99476236D01*
X133317125Y-99429714D01*
X133415916Y-99396046D01*
X133528510Y-99374231D01*
X133658164Y-99363265D01*
X133750670Y-99362219D01*
X133872011Y-99372014D01*
X133982099Y-99396174D01*
X134085389Y-99435785D01*
X134186338Y-99491932D01*
X134231503Y-99522883D01*
X134336911Y-99614115D01*
X134428538Y-99723106D01*
X134506332Y-99849726D01*
X134570241Y-99993845D01*
X134620214Y-100155332D01*
X134656198Y-100334059D01*
X134678143Y-100529895D01*
X134683900Y-100685934D01*
X134685994Y-100742711D01*
G36*
X134685994Y-100742711D02*
G01*
X134685268Y-100820158D01*
X134676689Y-100971594D01*
X134657833Y-101108283D01*
X134627837Y-101234276D01*
X134585836Y-101353625D01*
X134530969Y-101470381D01*
X134464167Y-101581179D01*
X134373363Y-101694739D01*
X134269708Y-101790211D01*
X134153887Y-101867073D01*
X134026586Y-101924797D01*
X133888489Y-101962858D01*
X133850793Y-101968666D01*
X133771752Y-101974396D01*
X133683629Y-101974583D01*
X133594236Y-101969539D01*
X133511384Y-101959578D01*
X133442887Y-101945012D01*
X133412035Y-101935364D01*
X133334730Y-101905123D01*
X133257679Y-101867617D01*
X133188200Y-101826614D01*
X133133615Y-101785879D01*
X133110916Y-101766505D01*
X133088201Y-101748662D01*
X133076779Y-101741778D01*
X133075537Y-101743424D01*
X133072728Y-101761205D01*
X133070776Y-101794370D01*
X133070045Y-101837733D01*
X133070045Y-101933689D01*
X132211896Y-101933689D01*
X132246161Y-101872974D01*
X132251355Y-101863868D01*
X132259715Y-101849249D01*
X132267288Y-101835173D01*
X132274112Y-101820540D01*
X132280227Y-101804249D01*
X132285673Y-101785198D01*
X132290487Y-101762286D01*
X132294708Y-101734413D01*
X132298377Y-101700478D01*
X132301531Y-101659379D01*
X132304211Y-101610015D01*
X132306454Y-101551286D01*
X132308299Y-101482090D01*
X132309787Y-101401326D01*
X132310955Y-101307894D01*
X132311844Y-101200692D01*
X132312491Y-101078620D01*
X132312936Y-100940576D01*
X132313218Y-100785459D01*
X132313375Y-100612168D01*
X132313448Y-100419603D01*
X132313474Y-100206662D01*
X132313485Y-100070530D01*
X133115200Y-100070530D01*
X133115200Y-101220721D01*
X133185756Y-101267089D01*
X133226417Y-101290791D01*
X133280546Y-101316639D01*
X133329689Y-101334829D01*
X133393165Y-101350551D01*
X133489331Y-101361541D01*
X133573900Y-101353365D01*
X133647219Y-101325805D01*
X133709637Y-101278642D01*
X133761502Y-101211658D01*
X133803160Y-101124633D01*
X133834962Y-101017350D01*
X133837545Y-101005009D01*
X133846000Y-100943772D01*
X133851663Y-100866692D01*
X133854576Y-100779002D01*
X133854783Y-100685934D01*
X133852330Y-100592720D01*
X133847261Y-100504594D01*
X133839619Y-100426788D01*
X133829448Y-100364533D01*
X133828167Y-100358666D01*
X133799126Y-100248121D01*
X133764610Y-100157575D01*
X133723456Y-100084953D01*
X133674499Y-100028181D01*
X133616574Y-99985184D01*
X133584620Y-99969615D01*
X133511784Y-99950722D01*
X133430443Y-99947465D01*
X133345319Y-99959389D01*
X133261133Y-99986040D01*
X133182608Y-100026962D01*
X133115200Y-100070530D01*
X132313485Y-100070530D01*
X132313493Y-99972245D01*
X132313689Y-98287378D01*
X133219017Y-98287378D01*
X133194585Y-98324067D01*
X133188318Y-98333647D01*
X133162208Y-98379981D01*
X133144469Y-98427102D01*
X133132908Y-98482251D01*
X133125331Y-98552667D01*
X133124839Y-98559650D01*
X133123062Y-98597641D01*
X133121444Y-98651576D01*
X133119999Y-98718703D01*
X133118740Y-98796271D01*
X133117680Y-98881528D01*
X133116829Y-98971724D01*
X133116203Y-99064107D01*
X133115812Y-99155925D01*
X133115670Y-99244427D01*
X133115790Y-99326862D01*
X133116183Y-99400479D01*
X133116862Y-99462526D01*
X133117841Y-99510251D01*
X133119132Y-99540904D01*
X133120747Y-99551733D01*
X133128957Y-99547333D01*
X133150647Y-99532362D01*
X133180014Y-99510448D01*
X133228879Y-99476236D01*
X133317125Y-99429714D01*
X133415916Y-99396046D01*
X133528510Y-99374231D01*
X133658164Y-99363265D01*
X133750670Y-99362219D01*
X133872011Y-99372014D01*
X133982099Y-99396174D01*
X134085389Y-99435785D01*
X134186338Y-99491932D01*
X134231503Y-99522883D01*
X134336911Y-99614115D01*
X134428538Y-99723106D01*
X134506332Y-99849726D01*
X134570241Y-99993845D01*
X134620214Y-100155332D01*
X134656198Y-100334059D01*
X134678143Y-100529895D01*
X134683900Y-100685934D01*
X134685994Y-100742711D01*
G37*
X137227755Y-101143467D02*
X137227261Y-101177363D01*
X137223632Y-101252202D01*
X137216022Y-101314401D01*
X137203688Y-101370984D01*
X137159313Y-101497076D01*
X137096400Y-101611679D01*
X137016238Y-101712568D01*
X136919740Y-101798924D01*
X136807822Y-101869932D01*
X136681397Y-101924776D01*
X136541378Y-101962638D01*
X136505149Y-101968351D01*
X136426155Y-101974313D01*
X136337841Y-101974646D01*
X136248075Y-101969659D01*
X136164722Y-101959666D01*
X136095651Y-101944978D01*
X136009187Y-101914749D01*
X135899286Y-101860057D01*
X135801956Y-101792543D01*
X135739867Y-101741556D01*
X135736605Y-101837622D01*
X135733343Y-101933689D01*
X135310450Y-101933689D01*
X135299543Y-101933686D01*
X135205056Y-101933380D01*
X135118331Y-101932616D01*
X135041837Y-101931451D01*
X134978043Y-101929942D01*
X134929418Y-101928147D01*
X134898433Y-101926121D01*
X134887556Y-101923922D01*
X134887578Y-101923463D01*
X134894614Y-101907910D01*
X134910434Y-101885071D01*
X134914734Y-101879638D01*
X134925777Y-101865606D01*
X134935311Y-101852186D01*
X134943461Y-101837722D01*
X134950352Y-101820556D01*
X134956111Y-101799034D01*
X134960862Y-101771498D01*
X134964731Y-101736292D01*
X134967844Y-101691760D01*
X134970325Y-101636246D01*
X134972300Y-101568093D01*
X134973894Y-101485645D01*
X134975234Y-101387246D01*
X134976444Y-101271239D01*
X134977649Y-101135968D01*
X134978595Y-101024586D01*
X135779378Y-101024586D01*
X135779378Y-101220462D01*
X135824048Y-101276973D01*
X135836785Y-101292212D01*
X135883604Y-101334844D01*
X135944255Y-101370672D01*
X135954897Y-101375850D01*
X135993676Y-101392745D01*
X136028692Y-101402909D01*
X136068722Y-101408325D01*
X136122541Y-101410978D01*
X136140648Y-101411383D01*
X136216011Y-101408540D01*
X136276743Y-101396620D01*
X136328452Y-101374037D01*
X136376746Y-101339211D01*
X136381803Y-101334798D01*
X136430272Y-101279160D01*
X136458459Y-101215333D01*
X136467752Y-101140282D01*
X136460520Y-101068693D01*
X136435796Y-101005645D01*
X136391249Y-100947758D01*
X136336319Y-100900808D01*
X136263894Y-100860961D01*
X136177340Y-100833263D01*
X136074670Y-100817096D01*
X135953894Y-100811842D01*
X135945007Y-100811857D01*
X135889660Y-100812655D01*
X135842736Y-100814488D01*
X135808953Y-100817111D01*
X135793028Y-100820274D01*
X135788943Y-100826741D01*
X135784572Y-100848875D01*
X135781604Y-100887988D01*
X135779914Y-100945939D01*
X135779378Y-101024586D01*
X134978595Y-101024586D01*
X134978975Y-100979778D01*
X134980228Y-100837012D01*
X134981651Y-100691942D01*
X134983176Y-100566027D01*
X134984933Y-100457436D01*
X134987051Y-100364334D01*
X134989660Y-100284891D01*
X134992890Y-100217273D01*
X134996869Y-100159649D01*
X135001728Y-100110185D01*
X135007597Y-100067050D01*
X135014604Y-100028410D01*
X135022880Y-99992434D01*
X135032554Y-99957289D01*
X135043756Y-99921142D01*
X135056616Y-99882161D01*
X135072090Y-99839091D01*
X135114994Y-99746871D01*
X135168735Y-99667099D01*
X135237576Y-99592965D01*
X135315185Y-99529405D01*
X135419761Y-99467725D01*
X135539244Y-99420202D01*
X135674508Y-99386567D01*
X135826426Y-99366552D01*
X135995872Y-99359889D01*
X136053890Y-99360287D01*
X136119398Y-99362335D01*
X136180693Y-99366704D01*
X136242097Y-99374035D01*
X136307932Y-99384969D01*
X136382520Y-99400147D01*
X136470184Y-99420209D01*
X136575245Y-99445797D01*
X136603806Y-99452820D01*
X136679054Y-99470776D01*
X136749388Y-99486820D01*
X136810567Y-99500028D01*
X136858354Y-99509474D01*
X136888511Y-99514231D01*
X136916783Y-99517910D01*
X136943060Y-99523187D01*
X136953059Y-99527942D01*
X136949952Y-99536781D01*
X136939194Y-99564072D01*
X136921864Y-99606906D01*
X136899126Y-99662425D01*
X136872147Y-99727772D01*
X136842090Y-99800089D01*
X136835493Y-99815879D01*
X136796907Y-99906484D01*
X136765768Y-99976217D01*
X136741917Y-100025405D01*
X136725198Y-100054374D01*
X136715454Y-100063452D01*
X136707766Y-100061405D01*
X136681415Y-100051760D01*
X136642982Y-100036190D01*
X136597822Y-100016815D01*
X136503293Y-99978814D01*
X136366480Y-99937780D01*
X136225289Y-99912612D01*
X136187314Y-99908611D01*
X136084059Y-99906447D01*
X135996952Y-99919622D01*
X135925129Y-99948756D01*
X135867731Y-99994466D01*
X135823896Y-100057372D01*
X135792762Y-100138092D01*
X135773470Y-100237245D01*
X135766050Y-100296224D01*
X135927936Y-100289445D01*
X136054495Y-100287813D01*
X136205951Y-100294194D01*
X136354396Y-100308777D01*
X136490578Y-100330882D01*
X136555245Y-100345821D01*
X136687490Y-100388741D01*
X136809762Y-100445340D01*
X136919685Y-100514017D01*
X137014883Y-100593170D01*
X137092980Y-100681196D01*
X137151599Y-100776493D01*
X137175595Y-100828864D01*
X137201232Y-100899590D01*
X137217478Y-100970812D01*
X137225822Y-101049712D01*
X137227690Y-101140282D01*
X137227755Y-101143467D01*
G36*
X137227755Y-101143467D02*
G01*
X137227261Y-101177363D01*
X137223632Y-101252202D01*
X137216022Y-101314401D01*
X137203688Y-101370984D01*
X137159313Y-101497076D01*
X137096400Y-101611679D01*
X137016238Y-101712568D01*
X136919740Y-101798924D01*
X136807822Y-101869932D01*
X136681397Y-101924776D01*
X136541378Y-101962638D01*
X136505149Y-101968351D01*
X136426155Y-101974313D01*
X136337841Y-101974646D01*
X136248075Y-101969659D01*
X136164722Y-101959666D01*
X136095651Y-101944978D01*
X136009187Y-101914749D01*
X135899286Y-101860057D01*
X135801956Y-101792543D01*
X135739867Y-101741556D01*
X135736605Y-101837622D01*
X135733343Y-101933689D01*
X135310450Y-101933689D01*
X135299543Y-101933686D01*
X135205056Y-101933380D01*
X135118331Y-101932616D01*
X135041837Y-101931451D01*
X134978043Y-101929942D01*
X134929418Y-101928147D01*
X134898433Y-101926121D01*
X134887556Y-101923922D01*
X134887578Y-101923463D01*
X134894614Y-101907910D01*
X134910434Y-101885071D01*
X134914734Y-101879638D01*
X134925777Y-101865606D01*
X134935311Y-101852186D01*
X134943461Y-101837722D01*
X134950352Y-101820556D01*
X134956111Y-101799034D01*
X134960862Y-101771498D01*
X134964731Y-101736292D01*
X134967844Y-101691760D01*
X134970325Y-101636246D01*
X134972300Y-101568093D01*
X134973894Y-101485645D01*
X134975234Y-101387246D01*
X134976444Y-101271239D01*
X134977649Y-101135968D01*
X134978595Y-101024586D01*
X135779378Y-101024586D01*
X135779378Y-101220462D01*
X135824048Y-101276973D01*
X135836785Y-101292212D01*
X135883604Y-101334844D01*
X135944255Y-101370672D01*
X135954897Y-101375850D01*
X135993676Y-101392745D01*
X136028692Y-101402909D01*
X136068722Y-101408325D01*
X136122541Y-101410978D01*
X136140648Y-101411383D01*
X136216011Y-101408540D01*
X136276743Y-101396620D01*
X136328452Y-101374037D01*
X136376746Y-101339211D01*
X136381803Y-101334798D01*
X136430272Y-101279160D01*
X136458459Y-101215333D01*
X136467752Y-101140282D01*
X136460520Y-101068693D01*
X136435796Y-101005645D01*
X136391249Y-100947758D01*
X136336319Y-100900808D01*
X136263894Y-100860961D01*
X136177340Y-100833263D01*
X136074670Y-100817096D01*
X135953894Y-100811842D01*
X135945007Y-100811857D01*
X135889660Y-100812655D01*
X135842736Y-100814488D01*
X135808953Y-100817111D01*
X135793028Y-100820274D01*
X135788943Y-100826741D01*
X135784572Y-100848875D01*
X135781604Y-100887988D01*
X135779914Y-100945939D01*
X135779378Y-101024586D01*
X134978595Y-101024586D01*
X134978975Y-100979778D01*
X134980228Y-100837012D01*
X134981651Y-100691942D01*
X134983176Y-100566027D01*
X134984933Y-100457436D01*
X134987051Y-100364334D01*
X134989660Y-100284891D01*
X134992890Y-100217273D01*
X134996869Y-100159649D01*
X135001728Y-100110185D01*
X135007597Y-100067050D01*
X135014604Y-100028410D01*
X135022880Y-99992434D01*
X135032554Y-99957289D01*
X135043756Y-99921142D01*
X135056616Y-99882161D01*
X135072090Y-99839091D01*
X135114994Y-99746871D01*
X135168735Y-99667099D01*
X135237576Y-99592965D01*
X135315185Y-99529405D01*
X135419761Y-99467725D01*
X135539244Y-99420202D01*
X135674508Y-99386567D01*
X135826426Y-99366552D01*
X135995872Y-99359889D01*
X136053890Y-99360287D01*
X136119398Y-99362335D01*
X136180693Y-99366704D01*
X136242097Y-99374035D01*
X136307932Y-99384969D01*
X136382520Y-99400147D01*
X136470184Y-99420209D01*
X136575245Y-99445797D01*
X136603806Y-99452820D01*
X136679054Y-99470776D01*
X136749388Y-99486820D01*
X136810567Y-99500028D01*
X136858354Y-99509474D01*
X136888511Y-99514231D01*
X136916783Y-99517910D01*
X136943060Y-99523187D01*
X136953059Y-99527942D01*
X136949952Y-99536781D01*
X136939194Y-99564072D01*
X136921864Y-99606906D01*
X136899126Y-99662425D01*
X136872147Y-99727772D01*
X136842090Y-99800089D01*
X136835493Y-99815879D01*
X136796907Y-99906484D01*
X136765768Y-99976217D01*
X136741917Y-100025405D01*
X136725198Y-100054374D01*
X136715454Y-100063452D01*
X136707766Y-100061405D01*
X136681415Y-100051760D01*
X136642982Y-100036190D01*
X136597822Y-100016815D01*
X136503293Y-99978814D01*
X136366480Y-99937780D01*
X136225289Y-99912612D01*
X136187314Y-99908611D01*
X136084059Y-99906447D01*
X135996952Y-99919622D01*
X135925129Y-99948756D01*
X135867731Y-99994466D01*
X135823896Y-100057372D01*
X135792762Y-100138092D01*
X135773470Y-100237245D01*
X135766050Y-100296224D01*
X135927936Y-100289445D01*
X136054495Y-100287813D01*
X136205951Y-100294194D01*
X136354396Y-100308777D01*
X136490578Y-100330882D01*
X136555245Y-100345821D01*
X136687490Y-100388741D01*
X136809762Y-100445340D01*
X136919685Y-100514017D01*
X137014883Y-100593170D01*
X137092980Y-100681196D01*
X137151599Y-100776493D01*
X137175595Y-100828864D01*
X137201232Y-100899590D01*
X137217478Y-100970812D01*
X137225822Y-101049712D01*
X137227690Y-101140282D01*
X137227755Y-101143467D01*
G37*
X144775614Y-98611792D02*
X144776059Y-98743011D01*
X144776362Y-98890216D01*
X144776548Y-99054349D01*
X144776642Y-99236352D01*
X144776671Y-99437165D01*
X144776661Y-99657732D01*
X144776636Y-99898992D01*
X144776622Y-100161889D01*
X144776622Y-100204040D01*
X144776646Y-100464668D01*
X144776685Y-100703796D01*
X144776708Y-100922360D01*
X144776687Y-101121295D01*
X144776593Y-101301535D01*
X144776395Y-101464015D01*
X144776063Y-101609670D01*
X144775569Y-101739434D01*
X144774883Y-101854243D01*
X144773976Y-101955030D01*
X144772817Y-102042730D01*
X144771378Y-102118279D01*
X144769629Y-102182611D01*
X144767540Y-102236661D01*
X144765083Y-102281363D01*
X144762227Y-102317652D01*
X144758943Y-102346463D01*
X144755202Y-102368731D01*
X144750974Y-102385390D01*
X144746229Y-102397375D01*
X144740939Y-102405621D01*
X144735073Y-102411062D01*
X144728602Y-102414634D01*
X144721497Y-102417270D01*
X144713728Y-102419906D01*
X144705266Y-102423477D01*
X144700908Y-102425145D01*
X144692395Y-102427111D01*
X144679694Y-102428911D01*
X144661885Y-102430555D01*
X144638049Y-102432047D01*
X144607266Y-102433397D01*
X144568617Y-102434611D01*
X144521182Y-102435697D01*
X144464043Y-102436661D01*
X144396279Y-102437511D01*
X144316971Y-102438253D01*
X144225199Y-102438897D01*
X144120044Y-102439447D01*
X144000587Y-102439913D01*
X143865908Y-102440300D01*
X143715088Y-102440616D01*
X143547206Y-102440869D01*
X143361345Y-102441066D01*
X143156583Y-102441213D01*
X142932002Y-102441318D01*
X142686682Y-102441389D01*
X142419704Y-102441432D01*
X142381321Y-102441437D01*
X142115922Y-102441480D01*
X141872050Y-102441525D01*
X141648783Y-102441548D01*
X141445196Y-102441524D01*
X141260367Y-102441430D01*
X141093373Y-102441243D01*
X140943290Y-102440939D01*
X140809196Y-102440494D01*
X140690166Y-102439885D01*
X140585279Y-102439089D01*
X140493610Y-102438080D01*
X140414237Y-102436837D01*
X140346237Y-102435335D01*
X140288686Y-102433551D01*
X140240662Y-102431461D01*
X140201240Y-102429042D01*
X140169499Y-102426270D01*
X140144514Y-102423121D01*
X140125364Y-102419572D01*
X140111123Y-102415598D01*
X140100871Y-102411178D01*
X140093682Y-102406286D01*
X140088635Y-102400900D01*
X140084805Y-102394996D01*
X140081271Y-102388549D01*
X140077108Y-102381537D01*
X140076025Y-102379687D01*
X140073813Y-102374180D01*
X140071786Y-102365868D01*
X140069938Y-102353809D01*
X140068261Y-102337063D01*
X140066745Y-102314687D01*
X140065383Y-102285740D01*
X140064167Y-102249280D01*
X140063089Y-102204367D01*
X140062140Y-102150057D01*
X140061312Y-102085410D01*
X140060597Y-102009484D01*
X140059987Y-101921338D01*
X140059942Y-101912493D01*
X140351378Y-101912493D01*
X140355260Y-101913765D01*
X140378520Y-101915791D01*
X140420874Y-101917626D01*
X140480132Y-101919227D01*
X140554107Y-101920549D01*
X140640610Y-101921548D01*
X140737452Y-101922180D01*
X140842445Y-101922400D01*
X141540651Y-101922400D01*
X142695090Y-101922400D01*
X142694456Y-101846200D01*
X142695574Y-101804160D01*
X142701304Y-101768334D01*
X142713890Y-101730772D01*
X142735568Y-101682577D01*
X142738789Y-101675897D01*
X142764188Y-101626359D01*
X142790996Y-101578369D01*
X142813917Y-101541466D01*
X142818485Y-101534834D01*
X142840516Y-101503593D01*
X142872693Y-101458654D01*
X142913457Y-101402147D01*
X142961245Y-101336204D01*
X143014498Y-101262957D01*
X143071655Y-101184536D01*
X143131155Y-101103072D01*
X143191437Y-101020698D01*
X143250940Y-100939544D01*
X143308105Y-100861742D01*
X143361370Y-100789423D01*
X143409174Y-100724718D01*
X143449957Y-100669759D01*
X143482158Y-100626676D01*
X143504216Y-100597602D01*
X143514571Y-100584667D01*
X143519044Y-100580351D01*
X143523236Y-100578312D01*
X143526643Y-100580926D01*
X143529325Y-100589986D01*
X143531341Y-100607285D01*
X143532748Y-100634614D01*
X143533605Y-100673765D01*
X143533970Y-100726533D01*
X143533903Y-100794707D01*
X143533460Y-100880082D01*
X143532702Y-100984449D01*
X143531685Y-101109600D01*
X143531308Y-101154300D01*
X143530169Y-101275395D01*
X143528972Y-101376688D01*
X143527636Y-101460262D01*
X143526077Y-101528204D01*
X143524215Y-101582599D01*
X143521966Y-101625532D01*
X143519248Y-101659089D01*
X143515979Y-101685355D01*
X143512078Y-101706416D01*
X143507461Y-101724357D01*
X143499192Y-101750770D01*
X143475583Y-101812772D01*
X143449685Y-101865573D01*
X143424535Y-101902645D01*
X143423339Y-101904075D01*
X143421168Y-101908424D01*
X143423328Y-101912026D01*
X143431644Y-101914951D01*
X143447940Y-101917269D01*
X143474041Y-101919051D01*
X143511771Y-101920367D01*
X143562956Y-101921286D01*
X143629420Y-101921878D01*
X143712987Y-101922215D01*
X143815483Y-101922365D01*
X143938732Y-101922400D01*
X144470296Y-101922400D01*
X144431523Y-101864783D01*
X144425432Y-101855893D01*
X144414976Y-101841069D01*
X144405579Y-101827422D01*
X144397183Y-101813765D01*
X144389733Y-101798911D01*
X144383173Y-101781670D01*
X144377446Y-101760855D01*
X144372495Y-101735280D01*
X144368266Y-101703755D01*
X144364701Y-101665093D01*
X144361744Y-101618107D01*
X144359340Y-101561608D01*
X144357431Y-101494409D01*
X144355962Y-101415322D01*
X144354876Y-101323160D01*
X144354118Y-101216734D01*
X144353630Y-101094857D01*
X144353358Y-100956341D01*
X144353243Y-100799999D01*
X144353231Y-100624642D01*
X144353265Y-100429082D01*
X144353289Y-100212133D01*
X144353280Y-100089513D01*
X144353243Y-99884447D01*
X144353227Y-99700116D01*
X144353288Y-99535334D01*
X144353484Y-99388916D01*
X144353870Y-99259674D01*
X144354505Y-99146422D01*
X144355444Y-99047975D01*
X144356745Y-98963144D01*
X144358464Y-98890744D01*
X144360659Y-98829589D01*
X144363385Y-98778492D01*
X144366701Y-98736267D01*
X144370662Y-98701727D01*
X144375325Y-98673686D01*
X144380747Y-98650958D01*
X144386986Y-98632356D01*
X144394097Y-98616693D01*
X144402138Y-98602784D01*
X144411166Y-98589441D01*
X144421236Y-98575479D01*
X144432407Y-98559711D01*
X144472197Y-98501867D01*
X143412314Y-98501867D01*
X143450311Y-98564966D01*
X143464993Y-98590005D01*
X143479531Y-98617586D01*
X143491627Y-98645700D01*
X143501532Y-98676551D01*
X143509494Y-98712344D01*
X143515761Y-98755283D01*
X143520582Y-98807574D01*
X143524206Y-98871419D01*
X143526881Y-98949025D01*
X143528857Y-99042594D01*
X143530382Y-99154333D01*
X143531704Y-99286445D01*
X143532613Y-99406434D01*
X143533020Y-99523063D01*
X143532767Y-99618531D01*
X143531857Y-99692556D01*
X143530293Y-99744855D01*
X143528079Y-99775149D01*
X143525220Y-99783156D01*
X143522161Y-99779858D01*
X143504006Y-99758408D01*
X143474275Y-99721889D01*
X143434639Y-99672442D01*
X143386771Y-99612207D01*
X143332343Y-99543327D01*
X143273027Y-99467943D01*
X143210495Y-99388196D01*
X143146421Y-99306228D01*
X143082475Y-99224180D01*
X143020331Y-99144194D01*
X142961661Y-99068411D01*
X142908137Y-98998973D01*
X142861430Y-98938021D01*
X142823214Y-98887696D01*
X142795161Y-98850140D01*
X142778943Y-98827495D01*
X142733635Y-98755212D01*
X142693661Y-98675463D01*
X142672130Y-98607188D01*
X142668827Y-98549844D01*
X142674116Y-98501867D01*
X141542356Y-98502117D01*
X141581867Y-98532722D01*
X141591248Y-98540089D01*
X141654183Y-98594438D01*
X141722997Y-98662259D01*
X141799596Y-98745516D01*
X141885888Y-98846178D01*
X141903052Y-98866847D01*
X141943833Y-98916409D01*
X141993588Y-98977326D01*
X142050955Y-99047898D01*
X142114569Y-99126424D01*
X142183069Y-99211204D01*
X142255090Y-99300537D01*
X142329270Y-99392722D01*
X142344517Y-99411702D01*
X142404246Y-99486060D01*
X142478653Y-99578848D01*
X142551131Y-99669388D01*
X142620314Y-99755978D01*
X142684841Y-99836918D01*
X142743347Y-99910506D01*
X142794470Y-99975044D01*
X142836847Y-100028829D01*
X142869115Y-100070162D01*
X142889910Y-100097342D01*
X142897869Y-100108668D01*
X142896111Y-100112771D01*
X142883230Y-100133334D01*
X142858885Y-100169561D01*
X142824247Y-100219824D01*
X142780486Y-100282492D01*
X142728775Y-100355936D01*
X142670284Y-100438527D01*
X142606184Y-100528636D01*
X142537646Y-100624631D01*
X142465843Y-100724885D01*
X142391944Y-100827768D01*
X142317121Y-100931650D01*
X142242545Y-101034901D01*
X142169387Y-101135892D01*
X142098819Y-101232994D01*
X142032011Y-101324577D01*
X141970135Y-101409011D01*
X141914361Y-101484667D01*
X141865862Y-101549916D01*
X141825807Y-101603128D01*
X141795369Y-101642673D01*
X141774944Y-101668026D01*
X141728899Y-101722295D01*
X141678612Y-101778775D01*
X141631815Y-101828669D01*
X141540651Y-101922400D01*
X140842445Y-101922400D01*
X140911356Y-101922349D01*
X141009607Y-101922091D01*
X141099030Y-101921637D01*
X141177333Y-101921010D01*
X141242223Y-101920235D01*
X141291411Y-101919335D01*
X141322604Y-101918334D01*
X141333511Y-101917257D01*
X141332322Y-101914037D01*
X141322176Y-101896452D01*
X141305040Y-101870158D01*
X141296540Y-101857691D01*
X141287329Y-101843622D01*
X141279233Y-101829351D01*
X141272185Y-101813479D01*
X141266117Y-101794609D01*
X141260961Y-101771341D01*
X141256651Y-101742278D01*
X141253119Y-101706021D01*
X141250297Y-101661170D01*
X141248118Y-101606328D01*
X141246514Y-101540097D01*
X141245419Y-101461077D01*
X141244765Y-101367871D01*
X141244484Y-101259079D01*
X141244509Y-101133303D01*
X141244772Y-100989145D01*
X141245206Y-100825207D01*
X141245745Y-100640089D01*
X141246279Y-100461232D01*
X141246805Y-100302374D01*
X141247350Y-100163316D01*
X141247945Y-100042665D01*
X141248619Y-99939028D01*
X141249403Y-99851011D01*
X141250326Y-99777223D01*
X141251419Y-99716269D01*
X141252712Y-99666757D01*
X141254235Y-99627293D01*
X141256019Y-99596484D01*
X141258092Y-99572938D01*
X141260486Y-99555260D01*
X141263230Y-99542059D01*
X141266356Y-99531940D01*
X141269892Y-99523511D01*
X141273791Y-99515375D01*
X141293438Y-99478544D01*
X141312225Y-99448391D01*
X141313272Y-99446908D01*
X141327602Y-99424659D01*
X141333511Y-99411702D01*
X141332504Y-99411249D01*
X141315305Y-99409803D01*
X141278656Y-99408480D01*
X141224962Y-99407316D01*
X141156630Y-99406347D01*
X141076064Y-99405611D01*
X140985670Y-99405142D01*
X140887853Y-99404978D01*
X140442195Y-99404978D01*
X140439120Y-100581845D01*
X140436045Y-101758711D01*
X140409407Y-101817622D01*
X140397485Y-101842183D01*
X140380246Y-101872434D01*
X140367074Y-101889560D01*
X140359076Y-101897591D01*
X140351378Y-101912493D01*
X140059942Y-101912493D01*
X140059474Y-101820029D01*
X140059050Y-101704617D01*
X140058706Y-101574160D01*
X140058434Y-101427716D01*
X140058227Y-101264344D01*
X140058076Y-101083101D01*
X140057972Y-100883048D01*
X140057908Y-100663241D01*
X140057876Y-100422739D01*
X140057867Y-100160602D01*
X140057867Y-97969031D01*
X140096249Y-97930649D01*
X140123355Y-97906911D01*
X140150253Y-97895111D01*
X140186560Y-97892267D01*
X140238489Y-97892267D01*
X140238489Y-97980206D01*
X140240427Y-98030102D01*
X140259199Y-98140523D01*
X140296217Y-98241987D01*
X140349369Y-98333152D01*
X140416546Y-98412673D01*
X140495638Y-98479205D01*
X140584534Y-98531406D01*
X140681125Y-98567930D01*
X140783300Y-98587434D01*
X140888950Y-98588573D01*
X140995964Y-98570005D01*
X141102232Y-98530384D01*
X141199219Y-98472516D01*
X141284293Y-98397684D01*
X141353015Y-98309615D01*
X141403918Y-98210616D01*
X141435535Y-98102993D01*
X141446400Y-97989054D01*
X141446400Y-97892267D01*
X143066753Y-97892267D01*
X143277897Y-97892280D01*
X143482020Y-97892330D01*
X143665686Y-97892430D01*
X143829991Y-97892592D01*
X143976029Y-97892829D01*
X144104894Y-97893153D01*
X144217683Y-97893575D01*
X144315488Y-97894109D01*
X144399404Y-97894767D01*
X144470527Y-97895561D01*
X144529950Y-97896504D01*
X144578768Y-97897608D01*
X144618077Y-97898884D01*
X144648969Y-97900347D01*
X144672541Y-97902007D01*
X144689886Y-97903878D01*
X144702099Y-97905972D01*
X144710275Y-97908300D01*
X144715508Y-97910876D01*
X144721504Y-97914445D01*
X144728279Y-97917978D01*
X144734478Y-97921488D01*
X144740126Y-97925918D01*
X144745247Y-97932208D01*
X144749869Y-97941301D01*
X144754015Y-97954139D01*
X144757713Y-97971662D01*
X144760987Y-97994813D01*
X144763863Y-98024534D01*
X144766367Y-98061765D01*
X144768524Y-98107449D01*
X144770360Y-98162527D01*
X144771900Y-98227941D01*
X144773170Y-98304633D01*
X144774195Y-98393544D01*
X144775001Y-98495617D01*
X144775034Y-98501867D01*
X144775614Y-98611792D01*
G36*
X144775614Y-98611792D02*
G01*
X144776059Y-98743011D01*
X144776362Y-98890216D01*
X144776548Y-99054349D01*
X144776642Y-99236352D01*
X144776671Y-99437165D01*
X144776661Y-99657732D01*
X144776636Y-99898992D01*
X144776622Y-100161889D01*
X144776622Y-100204040D01*
X144776646Y-100464668D01*
X144776685Y-100703796D01*
X144776708Y-100922360D01*
X144776687Y-101121295D01*
X144776593Y-101301535D01*
X144776395Y-101464015D01*
X144776063Y-101609670D01*
X144775569Y-101739434D01*
X144774883Y-101854243D01*
X144773976Y-101955030D01*
X144772817Y-102042730D01*
X144771378Y-102118279D01*
X144769629Y-102182611D01*
X144767540Y-102236661D01*
X144765083Y-102281363D01*
X144762227Y-102317652D01*
X144758943Y-102346463D01*
X144755202Y-102368731D01*
X144750974Y-102385390D01*
X144746229Y-102397375D01*
X144740939Y-102405621D01*
X144735073Y-102411062D01*
X144728602Y-102414634D01*
X144721497Y-102417270D01*
X144713728Y-102419906D01*
X144705266Y-102423477D01*
X144700908Y-102425145D01*
X144692395Y-102427111D01*
X144679694Y-102428911D01*
X144661885Y-102430555D01*
X144638049Y-102432047D01*
X144607266Y-102433397D01*
X144568617Y-102434611D01*
X144521182Y-102435697D01*
X144464043Y-102436661D01*
X144396279Y-102437511D01*
X144316971Y-102438253D01*
X144225199Y-102438897D01*
X144120044Y-102439447D01*
X144000587Y-102439913D01*
X143865908Y-102440300D01*
X143715088Y-102440616D01*
X143547206Y-102440869D01*
X143361345Y-102441066D01*
X143156583Y-102441213D01*
X142932002Y-102441318D01*
X142686682Y-102441389D01*
X142419704Y-102441432D01*
X142381321Y-102441437D01*
X142115922Y-102441480D01*
X141872050Y-102441525D01*
X141648783Y-102441548D01*
X141445196Y-102441524D01*
X141260367Y-102441430D01*
X141093373Y-102441243D01*
X140943290Y-102440939D01*
X140809196Y-102440494D01*
X140690166Y-102439885D01*
X140585279Y-102439089D01*
X140493610Y-102438080D01*
X140414237Y-102436837D01*
X140346237Y-102435335D01*
X140288686Y-102433551D01*
X140240662Y-102431461D01*
X140201240Y-102429042D01*
X140169499Y-102426270D01*
X140144514Y-102423121D01*
X140125364Y-102419572D01*
X140111123Y-102415598D01*
X140100871Y-102411178D01*
X140093682Y-102406286D01*
X140088635Y-102400900D01*
X140084805Y-102394996D01*
X140081271Y-102388549D01*
X140077108Y-102381537D01*
X140076025Y-102379687D01*
X140073813Y-102374180D01*
X140071786Y-102365868D01*
X140069938Y-102353809D01*
X140068261Y-102337063D01*
X140066745Y-102314687D01*
X140065383Y-102285740D01*
X140064167Y-102249280D01*
X140063089Y-102204367D01*
X140062140Y-102150057D01*
X140061312Y-102085410D01*
X140060597Y-102009484D01*
X140059987Y-101921338D01*
X140059942Y-101912493D01*
X140351378Y-101912493D01*
X140355260Y-101913765D01*
X140378520Y-101915791D01*
X140420874Y-101917626D01*
X140480132Y-101919227D01*
X140554107Y-101920549D01*
X140640610Y-101921548D01*
X140737452Y-101922180D01*
X140842445Y-101922400D01*
X141540651Y-101922400D01*
X142695090Y-101922400D01*
X142694456Y-101846200D01*
X142695574Y-101804160D01*
X142701304Y-101768334D01*
X142713890Y-101730772D01*
X142735568Y-101682577D01*
X142738789Y-101675897D01*
X142764188Y-101626359D01*
X142790996Y-101578369D01*
X142813917Y-101541466D01*
X142818485Y-101534834D01*
X142840516Y-101503593D01*
X142872693Y-101458654D01*
X142913457Y-101402147D01*
X142961245Y-101336204D01*
X143014498Y-101262957D01*
X143071655Y-101184536D01*
X143131155Y-101103072D01*
X143191437Y-101020698D01*
X143250940Y-100939544D01*
X143308105Y-100861742D01*
X143361370Y-100789423D01*
X143409174Y-100724718D01*
X143449957Y-100669759D01*
X143482158Y-100626676D01*
X143504216Y-100597602D01*
X143514571Y-100584667D01*
X143519044Y-100580351D01*
X143523236Y-100578312D01*
X143526643Y-100580926D01*
X143529325Y-100589986D01*
X143531341Y-100607285D01*
X143532748Y-100634614D01*
X143533605Y-100673765D01*
X143533970Y-100726533D01*
X143533903Y-100794707D01*
X143533460Y-100880082D01*
X143532702Y-100984449D01*
X143531685Y-101109600D01*
X143531308Y-101154300D01*
X143530169Y-101275395D01*
X143528972Y-101376688D01*
X143527636Y-101460262D01*
X143526077Y-101528204D01*
X143524215Y-101582599D01*
X143521966Y-101625532D01*
X143519248Y-101659089D01*
X143515979Y-101685355D01*
X143512078Y-101706416D01*
X143507461Y-101724357D01*
X143499192Y-101750770D01*
X143475583Y-101812772D01*
X143449685Y-101865573D01*
X143424535Y-101902645D01*
X143423339Y-101904075D01*
X143421168Y-101908424D01*
X143423328Y-101912026D01*
X143431644Y-101914951D01*
X143447940Y-101917269D01*
X143474041Y-101919051D01*
X143511771Y-101920367D01*
X143562956Y-101921286D01*
X143629420Y-101921878D01*
X143712987Y-101922215D01*
X143815483Y-101922365D01*
X143938732Y-101922400D01*
X144470296Y-101922400D01*
X144431523Y-101864783D01*
X144425432Y-101855893D01*
X144414976Y-101841069D01*
X144405579Y-101827422D01*
X144397183Y-101813765D01*
X144389733Y-101798911D01*
X144383173Y-101781670D01*
X144377446Y-101760855D01*
X144372495Y-101735280D01*
X144368266Y-101703755D01*
X144364701Y-101665093D01*
X144361744Y-101618107D01*
X144359340Y-101561608D01*
X144357431Y-101494409D01*
X144355962Y-101415322D01*
X144354876Y-101323160D01*
X144354118Y-101216734D01*
X144353630Y-101094857D01*
X144353358Y-100956341D01*
X144353243Y-100799999D01*
X144353231Y-100624642D01*
X144353265Y-100429082D01*
X144353289Y-100212133D01*
X144353280Y-100089513D01*
X144353243Y-99884447D01*
X144353227Y-99700116D01*
X144353288Y-99535334D01*
X144353484Y-99388916D01*
X144353870Y-99259674D01*
X144354505Y-99146422D01*
X144355444Y-99047975D01*
X144356745Y-98963144D01*
X144358464Y-98890744D01*
X144360659Y-98829589D01*
X144363385Y-98778492D01*
X144366701Y-98736267D01*
X144370662Y-98701727D01*
X144375325Y-98673686D01*
X144380747Y-98650958D01*
X144386986Y-98632356D01*
X144394097Y-98616693D01*
X144402138Y-98602784D01*
X144411166Y-98589441D01*
X144421236Y-98575479D01*
X144432407Y-98559711D01*
X144472197Y-98501867D01*
X143412314Y-98501867D01*
X143450311Y-98564966D01*
X143464993Y-98590005D01*
X143479531Y-98617586D01*
X143491627Y-98645700D01*
X143501532Y-98676551D01*
X143509494Y-98712344D01*
X143515761Y-98755283D01*
X143520582Y-98807574D01*
X143524206Y-98871419D01*
X143526881Y-98949025D01*
X143528857Y-99042594D01*
X143530382Y-99154333D01*
X143531704Y-99286445D01*
X143532613Y-99406434D01*
X143533020Y-99523063D01*
X143532767Y-99618531D01*
X143531857Y-99692556D01*
X143530293Y-99744855D01*
X143528079Y-99775149D01*
X143525220Y-99783156D01*
X143522161Y-99779858D01*
X143504006Y-99758408D01*
X143474275Y-99721889D01*
X143434639Y-99672442D01*
X143386771Y-99612207D01*
X143332343Y-99543327D01*
X143273027Y-99467943D01*
X143210495Y-99388196D01*
X143146421Y-99306228D01*
X143082475Y-99224180D01*
X143020331Y-99144194D01*
X142961661Y-99068411D01*
X142908137Y-98998973D01*
X142861430Y-98938021D01*
X142823214Y-98887696D01*
X142795161Y-98850140D01*
X142778943Y-98827495D01*
X142733635Y-98755212D01*
X142693661Y-98675463D01*
X142672130Y-98607188D01*
X142668827Y-98549844D01*
X142674116Y-98501867D01*
X141542356Y-98502117D01*
X141581867Y-98532722D01*
X141591248Y-98540089D01*
X141654183Y-98594438D01*
X141722997Y-98662259D01*
X141799596Y-98745516D01*
X141885888Y-98846178D01*
X141903052Y-98866847D01*
X141943833Y-98916409D01*
X141993588Y-98977326D01*
X142050955Y-99047898D01*
X142114569Y-99126424D01*
X142183069Y-99211204D01*
X142255090Y-99300537D01*
X142329270Y-99392722D01*
X142344517Y-99411702D01*
X142404246Y-99486060D01*
X142478653Y-99578848D01*
X142551131Y-99669388D01*
X142620314Y-99755978D01*
X142684841Y-99836918D01*
X142743347Y-99910506D01*
X142794470Y-99975044D01*
X142836847Y-100028829D01*
X142869115Y-100070162D01*
X142889910Y-100097342D01*
X142897869Y-100108668D01*
X142896111Y-100112771D01*
X142883230Y-100133334D01*
X142858885Y-100169561D01*
X142824247Y-100219824D01*
X142780486Y-100282492D01*
X142728775Y-100355936D01*
X142670284Y-100438527D01*
X142606184Y-100528636D01*
X142537646Y-100624631D01*
X142465843Y-100724885D01*
X142391944Y-100827768D01*
X142317121Y-100931650D01*
X142242545Y-101034901D01*
X142169387Y-101135892D01*
X142098819Y-101232994D01*
X142032011Y-101324577D01*
X141970135Y-101409011D01*
X141914361Y-101484667D01*
X141865862Y-101549916D01*
X141825807Y-101603128D01*
X141795369Y-101642673D01*
X141774944Y-101668026D01*
X141728899Y-101722295D01*
X141678612Y-101778775D01*
X141631815Y-101828669D01*
X141540651Y-101922400D01*
X140842445Y-101922400D01*
X140911356Y-101922349D01*
X141009607Y-101922091D01*
X141099030Y-101921637D01*
X141177333Y-101921010D01*
X141242223Y-101920235D01*
X141291411Y-101919335D01*
X141322604Y-101918334D01*
X141333511Y-101917257D01*
X141332322Y-101914037D01*
X141322176Y-101896452D01*
X141305040Y-101870158D01*
X141296540Y-101857691D01*
X141287329Y-101843622D01*
X141279233Y-101829351D01*
X141272185Y-101813479D01*
X141266117Y-101794609D01*
X141260961Y-101771341D01*
X141256651Y-101742278D01*
X141253119Y-101706021D01*
X141250297Y-101661170D01*
X141248118Y-101606328D01*
X141246514Y-101540097D01*
X141245419Y-101461077D01*
X141244765Y-101367871D01*
X141244484Y-101259079D01*
X141244509Y-101133303D01*
X141244772Y-100989145D01*
X141245206Y-100825207D01*
X141245745Y-100640089D01*
X141246279Y-100461232D01*
X141246805Y-100302374D01*
X141247350Y-100163316D01*
X141247945Y-100042665D01*
X141248619Y-99939028D01*
X141249403Y-99851011D01*
X141250326Y-99777223D01*
X141251419Y-99716269D01*
X141252712Y-99666757D01*
X141254235Y-99627293D01*
X141256019Y-99596484D01*
X141258092Y-99572938D01*
X141260486Y-99555260D01*
X141263230Y-99542059D01*
X141266356Y-99531940D01*
X141269892Y-99523511D01*
X141273791Y-99515375D01*
X141293438Y-99478544D01*
X141312225Y-99448391D01*
X141313272Y-99446908D01*
X141327602Y-99424659D01*
X141333511Y-99411702D01*
X141332504Y-99411249D01*
X141315305Y-99409803D01*
X141278656Y-99408480D01*
X141224962Y-99407316D01*
X141156630Y-99406347D01*
X141076064Y-99405611D01*
X140985670Y-99405142D01*
X140887853Y-99404978D01*
X140442195Y-99404978D01*
X140439120Y-100581845D01*
X140436045Y-101758711D01*
X140409407Y-101817622D01*
X140397485Y-101842183D01*
X140380246Y-101872434D01*
X140367074Y-101889560D01*
X140359076Y-101897591D01*
X140351378Y-101912493D01*
X140059942Y-101912493D01*
X140059474Y-101820029D01*
X140059050Y-101704617D01*
X140058706Y-101574160D01*
X140058434Y-101427716D01*
X140058227Y-101264344D01*
X140058076Y-101083101D01*
X140057972Y-100883048D01*
X140057908Y-100663241D01*
X140057876Y-100422739D01*
X140057867Y-100160602D01*
X140057867Y-97969031D01*
X140096249Y-97930649D01*
X140123355Y-97906911D01*
X140150253Y-97895111D01*
X140186560Y-97892267D01*
X140238489Y-97892267D01*
X140238489Y-97980206D01*
X140240427Y-98030102D01*
X140259199Y-98140523D01*
X140296217Y-98241987D01*
X140349369Y-98333152D01*
X140416546Y-98412673D01*
X140495638Y-98479205D01*
X140584534Y-98531406D01*
X140681125Y-98567930D01*
X140783300Y-98587434D01*
X140888950Y-98588573D01*
X140995964Y-98570005D01*
X141102232Y-98530384D01*
X141199219Y-98472516D01*
X141284293Y-98397684D01*
X141353015Y-98309615D01*
X141403918Y-98210616D01*
X141435535Y-98102993D01*
X141446400Y-97989054D01*
X141446400Y-97892267D01*
X143066753Y-97892267D01*
X143277897Y-97892280D01*
X143482020Y-97892330D01*
X143665686Y-97892430D01*
X143829991Y-97892592D01*
X143976029Y-97892829D01*
X144104894Y-97893153D01*
X144217683Y-97893575D01*
X144315488Y-97894109D01*
X144399404Y-97894767D01*
X144470527Y-97895561D01*
X144529950Y-97896504D01*
X144578768Y-97897608D01*
X144618077Y-97898884D01*
X144648969Y-97900347D01*
X144672541Y-97902007D01*
X144689886Y-97903878D01*
X144702099Y-97905972D01*
X144710275Y-97908300D01*
X144715508Y-97910876D01*
X144721504Y-97914445D01*
X144728279Y-97917978D01*
X144734478Y-97921488D01*
X144740126Y-97925918D01*
X144745247Y-97932208D01*
X144749869Y-97941301D01*
X144754015Y-97954139D01*
X144757713Y-97971662D01*
X144760987Y-97994813D01*
X144763863Y-98024534D01*
X144766367Y-98061765D01*
X144768524Y-98107449D01*
X144770360Y-98162527D01*
X144771900Y-98227941D01*
X144773170Y-98304633D01*
X144774195Y-98393544D01*
X144775001Y-98495617D01*
X144775034Y-98501867D01*
X144775614Y-98611792D01*
G37*
%TD*%
M02*
