%TF.GenerationSoftware,KiCad,Pcbnew,9.0.7*%
%TF.CreationDate,2026-02-22T20:56:26+05:30*%
%TF.ProjectId,555_timer,3535355f-7469-46d6-9572-2e6b69636164,rev?*%
%TF.SameCoordinates,Original*%
%TF.FileFunction,Legend,Top*%
%TF.FilePolarity,Positive*%
%FSLAX46Y46*%
G04 Gerber Fmt 4.6, Leading zero omitted, Abs format (unit mm)*
G04 Created by KiCad (PCBNEW 9.0.7) date 2026-02-22 20:56:26*
%MOMM*%
%LPD*%
G01*
G04 APERTURE LIST*
%ADD10C,0.100000*%
%ADD11C,0.150000*%
%ADD12C,0.120000*%
%ADD13C,0.000000*%
G04 APERTURE END LIST*
D10*
X143256265Y-110086704D02*
X143732455Y-110086704D01*
X143161027Y-110372419D02*
X143494360Y-109372419D01*
X143494360Y-109372419D02*
X143827693Y-110372419D01*
X144732455Y-110277180D02*
X144684836Y-110324800D01*
X144684836Y-110324800D02*
X144541979Y-110372419D01*
X144541979Y-110372419D02*
X144446741Y-110372419D01*
X144446741Y-110372419D02*
X144303884Y-110324800D01*
X144303884Y-110324800D02*
X144208646Y-110229561D01*
X144208646Y-110229561D02*
X144161027Y-110134323D01*
X144161027Y-110134323D02*
X144113408Y-109943847D01*
X144113408Y-109943847D02*
X144113408Y-109800990D01*
X144113408Y-109800990D02*
X144161027Y-109610514D01*
X144161027Y-109610514D02*
X144208646Y-109515276D01*
X144208646Y-109515276D02*
X144303884Y-109420038D01*
X144303884Y-109420038D02*
X144446741Y-109372419D01*
X144446741Y-109372419D02*
X144541979Y-109372419D01*
X144541979Y-109372419D02*
X144684836Y-109420038D01*
X144684836Y-109420038D02*
X144732455Y-109467657D01*
X145780075Y-109705752D02*
X146161027Y-109705752D01*
X145922932Y-109372419D02*
X145922932Y-110229561D01*
X145922932Y-110229561D02*
X145970551Y-110324800D01*
X145970551Y-110324800D02*
X146065789Y-110372419D01*
X146065789Y-110372419D02*
X146161027Y-110372419D01*
X146637218Y-110372419D02*
X146541980Y-110324800D01*
X146541980Y-110324800D02*
X146494361Y-110277180D01*
X146494361Y-110277180D02*
X146446742Y-110181942D01*
X146446742Y-110181942D02*
X146446742Y-109896228D01*
X146446742Y-109896228D02*
X146494361Y-109800990D01*
X146494361Y-109800990D02*
X146541980Y-109753371D01*
X146541980Y-109753371D02*
X146637218Y-109705752D01*
X146637218Y-109705752D02*
X146780075Y-109705752D01*
X146780075Y-109705752D02*
X146875313Y-109753371D01*
X146875313Y-109753371D02*
X146922932Y-109800990D01*
X146922932Y-109800990D02*
X146970551Y-109896228D01*
X146970551Y-109896228D02*
X146970551Y-110181942D01*
X146970551Y-110181942D02*
X146922932Y-110277180D01*
X146922932Y-110277180D02*
X146875313Y-110324800D01*
X146875313Y-110324800D02*
X146780075Y-110372419D01*
X146780075Y-110372419D02*
X146637218Y-110372419D01*
X148161028Y-110372419D02*
X148161028Y-109372419D01*
X148161028Y-109372419D02*
X148399123Y-109372419D01*
X148399123Y-109372419D02*
X148541980Y-109420038D01*
X148541980Y-109420038D02*
X148637218Y-109515276D01*
X148637218Y-109515276D02*
X148684837Y-109610514D01*
X148684837Y-109610514D02*
X148732456Y-109800990D01*
X148732456Y-109800990D02*
X148732456Y-109943847D01*
X148732456Y-109943847D02*
X148684837Y-110134323D01*
X148684837Y-110134323D02*
X148637218Y-110229561D01*
X148637218Y-110229561D02*
X148541980Y-110324800D01*
X148541980Y-110324800D02*
X148399123Y-110372419D01*
X148399123Y-110372419D02*
X148161028Y-110372419D01*
X149732456Y-110277180D02*
X149684837Y-110324800D01*
X149684837Y-110324800D02*
X149541980Y-110372419D01*
X149541980Y-110372419D02*
X149446742Y-110372419D01*
X149446742Y-110372419D02*
X149303885Y-110324800D01*
X149303885Y-110324800D02*
X149208647Y-110229561D01*
X149208647Y-110229561D02*
X149161028Y-110134323D01*
X149161028Y-110134323D02*
X149113409Y-109943847D01*
X149113409Y-109943847D02*
X149113409Y-109800990D01*
X149113409Y-109800990D02*
X149161028Y-109610514D01*
X149161028Y-109610514D02*
X149208647Y-109515276D01*
X149208647Y-109515276D02*
X149303885Y-109420038D01*
X149303885Y-109420038D02*
X149446742Y-109372419D01*
X149446742Y-109372419D02*
X149541980Y-109372419D01*
X149541980Y-109372419D02*
X149684837Y-109420038D01*
X149684837Y-109420038D02*
X149732456Y-109467657D01*
X151494361Y-110277180D02*
X151446742Y-110324800D01*
X151446742Y-110324800D02*
X151303885Y-110372419D01*
X151303885Y-110372419D02*
X151208647Y-110372419D01*
X151208647Y-110372419D02*
X151065790Y-110324800D01*
X151065790Y-110324800D02*
X150970552Y-110229561D01*
X150970552Y-110229561D02*
X150922933Y-110134323D01*
X150922933Y-110134323D02*
X150875314Y-109943847D01*
X150875314Y-109943847D02*
X150875314Y-109800990D01*
X150875314Y-109800990D02*
X150922933Y-109610514D01*
X150922933Y-109610514D02*
X150970552Y-109515276D01*
X150970552Y-109515276D02*
X151065790Y-109420038D01*
X151065790Y-109420038D02*
X151208647Y-109372419D01*
X151208647Y-109372419D02*
X151303885Y-109372419D01*
X151303885Y-109372419D02*
X151446742Y-109420038D01*
X151446742Y-109420038D02*
X151494361Y-109467657D01*
X152065790Y-110372419D02*
X151970552Y-110324800D01*
X151970552Y-110324800D02*
X151922933Y-110277180D01*
X151922933Y-110277180D02*
X151875314Y-110181942D01*
X151875314Y-110181942D02*
X151875314Y-109896228D01*
X151875314Y-109896228D02*
X151922933Y-109800990D01*
X151922933Y-109800990D02*
X151970552Y-109753371D01*
X151970552Y-109753371D02*
X152065790Y-109705752D01*
X152065790Y-109705752D02*
X152208647Y-109705752D01*
X152208647Y-109705752D02*
X152303885Y-109753371D01*
X152303885Y-109753371D02*
X152351504Y-109800990D01*
X152351504Y-109800990D02*
X152399123Y-109896228D01*
X152399123Y-109896228D02*
X152399123Y-110181942D01*
X152399123Y-110181942D02*
X152351504Y-110277180D01*
X152351504Y-110277180D02*
X152303885Y-110324800D01*
X152303885Y-110324800D02*
X152208647Y-110372419D01*
X152208647Y-110372419D02*
X152065790Y-110372419D01*
X152827695Y-109705752D02*
X152827695Y-110372419D01*
X152827695Y-109800990D02*
X152875314Y-109753371D01*
X152875314Y-109753371D02*
X152970552Y-109705752D01*
X152970552Y-109705752D02*
X153113409Y-109705752D01*
X153113409Y-109705752D02*
X153208647Y-109753371D01*
X153208647Y-109753371D02*
X153256266Y-109848609D01*
X153256266Y-109848609D02*
X153256266Y-110372419D01*
X153637219Y-109705752D02*
X153875314Y-110372419D01*
X153875314Y-110372419D02*
X154113409Y-109705752D01*
X154875314Y-110324800D02*
X154780076Y-110372419D01*
X154780076Y-110372419D02*
X154589600Y-110372419D01*
X154589600Y-110372419D02*
X154494362Y-110324800D01*
X154494362Y-110324800D02*
X154446743Y-110229561D01*
X154446743Y-110229561D02*
X154446743Y-109848609D01*
X154446743Y-109848609D02*
X154494362Y-109753371D01*
X154494362Y-109753371D02*
X154589600Y-109705752D01*
X154589600Y-109705752D02*
X154780076Y-109705752D01*
X154780076Y-109705752D02*
X154875314Y-109753371D01*
X154875314Y-109753371D02*
X154922933Y-109848609D01*
X154922933Y-109848609D02*
X154922933Y-109943847D01*
X154922933Y-109943847D02*
X154446743Y-110039085D01*
X155351505Y-110372419D02*
X155351505Y-109705752D01*
X155351505Y-109896228D02*
X155399124Y-109800990D01*
X155399124Y-109800990D02*
X155446743Y-109753371D01*
X155446743Y-109753371D02*
X155541981Y-109705752D01*
X155541981Y-109705752D02*
X155637219Y-109705752D01*
X155827696Y-109705752D02*
X156208648Y-109705752D01*
X155970553Y-109372419D02*
X155970553Y-110229561D01*
X155970553Y-110229561D02*
X156018172Y-110324800D01*
X156018172Y-110324800D02*
X156113410Y-110372419D01*
X156113410Y-110372419D02*
X156208648Y-110372419D01*
X156922934Y-110324800D02*
X156827696Y-110372419D01*
X156827696Y-110372419D02*
X156637220Y-110372419D01*
X156637220Y-110372419D02*
X156541982Y-110324800D01*
X156541982Y-110324800D02*
X156494363Y-110229561D01*
X156494363Y-110229561D02*
X156494363Y-109848609D01*
X156494363Y-109848609D02*
X156541982Y-109753371D01*
X156541982Y-109753371D02*
X156637220Y-109705752D01*
X156637220Y-109705752D02*
X156827696Y-109705752D01*
X156827696Y-109705752D02*
X156922934Y-109753371D01*
X156922934Y-109753371D02*
X156970553Y-109848609D01*
X156970553Y-109848609D02*
X156970553Y-109943847D01*
X156970553Y-109943847D02*
X156494363Y-110039085D01*
X157399125Y-110372419D02*
X157399125Y-109705752D01*
X157399125Y-109896228D02*
X157446744Y-109800990D01*
X157446744Y-109800990D02*
X157494363Y-109753371D01*
X157494363Y-109753371D02*
X157589601Y-109705752D01*
X157589601Y-109705752D02*
X157684839Y-109705752D01*
X126756265Y-78086704D02*
X127232455Y-78086704D01*
X126661027Y-78372419D02*
X126994360Y-77372419D01*
X126994360Y-77372419D02*
X127327693Y-78372419D01*
X128232455Y-78277180D02*
X128184836Y-78324800D01*
X128184836Y-78324800D02*
X128041979Y-78372419D01*
X128041979Y-78372419D02*
X127946741Y-78372419D01*
X127946741Y-78372419D02*
X127803884Y-78324800D01*
X127803884Y-78324800D02*
X127708646Y-78229561D01*
X127708646Y-78229561D02*
X127661027Y-78134323D01*
X127661027Y-78134323D02*
X127613408Y-77943847D01*
X127613408Y-77943847D02*
X127613408Y-77800990D01*
X127613408Y-77800990D02*
X127661027Y-77610514D01*
X127661027Y-77610514D02*
X127708646Y-77515276D01*
X127708646Y-77515276D02*
X127803884Y-77420038D01*
X127803884Y-77420038D02*
X127946741Y-77372419D01*
X127946741Y-77372419D02*
X128041979Y-77372419D01*
X128041979Y-77372419D02*
X128184836Y-77420038D01*
X128184836Y-77420038D02*
X128232455Y-77467657D01*
X129422932Y-78372419D02*
X129422932Y-77372419D01*
X129899122Y-77705752D02*
X129899122Y-78372419D01*
X129899122Y-77800990D02*
X129946741Y-77753371D01*
X129946741Y-77753371D02*
X130041979Y-77705752D01*
X130041979Y-77705752D02*
X130184836Y-77705752D01*
X130184836Y-77705752D02*
X130280074Y-77753371D01*
X130280074Y-77753371D02*
X130327693Y-77848609D01*
X130327693Y-77848609D02*
X130327693Y-78372419D01*
X125803884Y-110372419D02*
X125803884Y-109372419D01*
X125803884Y-109372419D02*
X126041979Y-109372419D01*
X126041979Y-109372419D02*
X126184836Y-109420038D01*
X126184836Y-109420038D02*
X126280074Y-109515276D01*
X126280074Y-109515276D02*
X126327693Y-109610514D01*
X126327693Y-109610514D02*
X126375312Y-109800990D01*
X126375312Y-109800990D02*
X126375312Y-109943847D01*
X126375312Y-109943847D02*
X126327693Y-110134323D01*
X126327693Y-110134323D02*
X126280074Y-110229561D01*
X126280074Y-110229561D02*
X126184836Y-110324800D01*
X126184836Y-110324800D02*
X126041979Y-110372419D01*
X126041979Y-110372419D02*
X125803884Y-110372419D01*
X127375312Y-110277180D02*
X127327693Y-110324800D01*
X127327693Y-110324800D02*
X127184836Y-110372419D01*
X127184836Y-110372419D02*
X127089598Y-110372419D01*
X127089598Y-110372419D02*
X126946741Y-110324800D01*
X126946741Y-110324800D02*
X126851503Y-110229561D01*
X126851503Y-110229561D02*
X126803884Y-110134323D01*
X126803884Y-110134323D02*
X126756265Y-109943847D01*
X126756265Y-109943847D02*
X126756265Y-109800990D01*
X126756265Y-109800990D02*
X126803884Y-109610514D01*
X126803884Y-109610514D02*
X126851503Y-109515276D01*
X126851503Y-109515276D02*
X126946741Y-109420038D01*
X126946741Y-109420038D02*
X127089598Y-109372419D01*
X127089598Y-109372419D02*
X127184836Y-109372419D01*
X127184836Y-109372419D02*
X127327693Y-109420038D01*
X127327693Y-109420038D02*
X127375312Y-109467657D01*
X128756265Y-109372419D02*
X128946741Y-109372419D01*
X128946741Y-109372419D02*
X129041979Y-109420038D01*
X129041979Y-109420038D02*
X129137217Y-109515276D01*
X129137217Y-109515276D02*
X129184836Y-109705752D01*
X129184836Y-109705752D02*
X129184836Y-110039085D01*
X129184836Y-110039085D02*
X129137217Y-110229561D01*
X129137217Y-110229561D02*
X129041979Y-110324800D01*
X129041979Y-110324800D02*
X128946741Y-110372419D01*
X128946741Y-110372419D02*
X128756265Y-110372419D01*
X128756265Y-110372419D02*
X128661027Y-110324800D01*
X128661027Y-110324800D02*
X128565789Y-110229561D01*
X128565789Y-110229561D02*
X128518170Y-110039085D01*
X128518170Y-110039085D02*
X128518170Y-109705752D01*
X128518170Y-109705752D02*
X128565789Y-109515276D01*
X128565789Y-109515276D02*
X128661027Y-109420038D01*
X128661027Y-109420038D02*
X128756265Y-109372419D01*
X130041979Y-109705752D02*
X130041979Y-110372419D01*
X129613408Y-109705752D02*
X129613408Y-110229561D01*
X129613408Y-110229561D02*
X129661027Y-110324800D01*
X129661027Y-110324800D02*
X129756265Y-110372419D01*
X129756265Y-110372419D02*
X129899122Y-110372419D01*
X129899122Y-110372419D02*
X129994360Y-110324800D01*
X129994360Y-110324800D02*
X130041979Y-110277180D01*
X130375313Y-109705752D02*
X130756265Y-109705752D01*
X130518170Y-109372419D02*
X130518170Y-110229561D01*
X130518170Y-110229561D02*
X130565789Y-110324800D01*
X130565789Y-110324800D02*
X130661027Y-110372419D01*
X130661027Y-110372419D02*
X130756265Y-110372419D01*
D11*
X144424819Y-85238094D02*
X143424819Y-85238094D01*
X143424819Y-85238094D02*
X143424819Y-84999999D01*
X143424819Y-84999999D02*
X143472438Y-84857142D01*
X143472438Y-84857142D02*
X143567676Y-84761904D01*
X143567676Y-84761904D02*
X143662914Y-84714285D01*
X143662914Y-84714285D02*
X143853390Y-84666666D01*
X143853390Y-84666666D02*
X143996247Y-84666666D01*
X143996247Y-84666666D02*
X144186723Y-84714285D01*
X144186723Y-84714285D02*
X144281961Y-84761904D01*
X144281961Y-84761904D02*
X144377200Y-84857142D01*
X144377200Y-84857142D02*
X144424819Y-84999999D01*
X144424819Y-84999999D02*
X144424819Y-85238094D01*
X143424819Y-84333332D02*
X143424819Y-83714285D01*
X143424819Y-83714285D02*
X143805771Y-84047618D01*
X143805771Y-84047618D02*
X143805771Y-83904761D01*
X143805771Y-83904761D02*
X143853390Y-83809523D01*
X143853390Y-83809523D02*
X143901009Y-83761904D01*
X143901009Y-83761904D02*
X143996247Y-83714285D01*
X143996247Y-83714285D02*
X144234342Y-83714285D01*
X144234342Y-83714285D02*
X144329580Y-83761904D01*
X144329580Y-83761904D02*
X144377200Y-83809523D01*
X144377200Y-83809523D02*
X144424819Y-83904761D01*
X144424819Y-83904761D02*
X144424819Y-84190475D01*
X144424819Y-84190475D02*
X144377200Y-84285713D01*
X144377200Y-84285713D02*
X144329580Y-84333332D01*
X144054819Y-79681904D02*
X143054819Y-79681904D01*
X144054819Y-79110476D02*
X143483390Y-79539047D01*
X143054819Y-79110476D02*
X143626247Y-79681904D01*
X157761905Y-81954819D02*
X157761905Y-80954819D01*
X157761905Y-80954819D02*
X158000000Y-80954819D01*
X158000000Y-80954819D02*
X158142857Y-81002438D01*
X158142857Y-81002438D02*
X158238095Y-81097676D01*
X158238095Y-81097676D02*
X158285714Y-81192914D01*
X158285714Y-81192914D02*
X158333333Y-81383390D01*
X158333333Y-81383390D02*
X158333333Y-81526247D01*
X158333333Y-81526247D02*
X158285714Y-81716723D01*
X158285714Y-81716723D02*
X158238095Y-81811961D01*
X158238095Y-81811961D02*
X158142857Y-81907200D01*
X158142857Y-81907200D02*
X158000000Y-81954819D01*
X158000000Y-81954819D02*
X157761905Y-81954819D01*
X159238095Y-80954819D02*
X158761905Y-80954819D01*
X158761905Y-80954819D02*
X158714286Y-81431009D01*
X158714286Y-81431009D02*
X158761905Y-81383390D01*
X158761905Y-81383390D02*
X158857143Y-81335771D01*
X158857143Y-81335771D02*
X159095238Y-81335771D01*
X159095238Y-81335771D02*
X159190476Y-81383390D01*
X159190476Y-81383390D02*
X159238095Y-81431009D01*
X159238095Y-81431009D02*
X159285714Y-81526247D01*
X159285714Y-81526247D02*
X159285714Y-81764342D01*
X159285714Y-81764342D02*
X159238095Y-81859580D01*
X159238095Y-81859580D02*
X159190476Y-81907200D01*
X159190476Y-81907200D02*
X159095238Y-81954819D01*
X159095238Y-81954819D02*
X158857143Y-81954819D01*
X158857143Y-81954819D02*
X158761905Y-81907200D01*
X158761905Y-81907200D02*
X158714286Y-81859580D01*
X139424819Y-85398094D02*
X138424819Y-85398094D01*
X138424819Y-85398094D02*
X138424819Y-85159999D01*
X138424819Y-85159999D02*
X138472438Y-85017142D01*
X138472438Y-85017142D02*
X138567676Y-84921904D01*
X138567676Y-84921904D02*
X138662914Y-84874285D01*
X138662914Y-84874285D02*
X138853390Y-84826666D01*
X138853390Y-84826666D02*
X138996247Y-84826666D01*
X138996247Y-84826666D02*
X139186723Y-84874285D01*
X139186723Y-84874285D02*
X139281961Y-84921904D01*
X139281961Y-84921904D02*
X139377200Y-85017142D01*
X139377200Y-85017142D02*
X139424819Y-85159999D01*
X139424819Y-85159999D02*
X139424819Y-85398094D01*
X139424819Y-83874285D02*
X139424819Y-84445713D01*
X139424819Y-84159999D02*
X138424819Y-84159999D01*
X138424819Y-84159999D02*
X138567676Y-84255237D01*
X138567676Y-84255237D02*
X138662914Y-84350475D01*
X138662914Y-84350475D02*
X138710533Y-84445713D01*
X139054819Y-79841904D02*
X138054819Y-79841904D01*
X139054819Y-79270476D02*
X138483390Y-79699047D01*
X138054819Y-79270476D02*
X138626247Y-79841904D01*
X144424819Y-101318094D02*
X143424819Y-101318094D01*
X143424819Y-101318094D02*
X143424819Y-101079999D01*
X143424819Y-101079999D02*
X143472438Y-100937142D01*
X143472438Y-100937142D02*
X143567676Y-100841904D01*
X143567676Y-100841904D02*
X143662914Y-100794285D01*
X143662914Y-100794285D02*
X143853390Y-100746666D01*
X143853390Y-100746666D02*
X143996247Y-100746666D01*
X143996247Y-100746666D02*
X144186723Y-100794285D01*
X144186723Y-100794285D02*
X144281961Y-100841904D01*
X144281961Y-100841904D02*
X144377200Y-100937142D01*
X144377200Y-100937142D02*
X144424819Y-101079999D01*
X144424819Y-101079999D02*
X144424819Y-101318094D01*
X143758152Y-99889523D02*
X144424819Y-99889523D01*
X143377200Y-100127618D02*
X144091485Y-100365713D01*
X144091485Y-100365713D02*
X144091485Y-99746666D01*
X144054819Y-95761904D02*
X143054819Y-95761904D01*
X144054819Y-95190476D02*
X143483390Y-95619047D01*
X143054819Y-95190476D02*
X143626247Y-95761904D01*
X139424819Y-101318094D02*
X138424819Y-101318094D01*
X138424819Y-101318094D02*
X138424819Y-101079999D01*
X138424819Y-101079999D02*
X138472438Y-100937142D01*
X138472438Y-100937142D02*
X138567676Y-100841904D01*
X138567676Y-100841904D02*
X138662914Y-100794285D01*
X138662914Y-100794285D02*
X138853390Y-100746666D01*
X138853390Y-100746666D02*
X138996247Y-100746666D01*
X138996247Y-100746666D02*
X139186723Y-100794285D01*
X139186723Y-100794285D02*
X139281961Y-100841904D01*
X139281961Y-100841904D02*
X139377200Y-100937142D01*
X139377200Y-100937142D02*
X139424819Y-101079999D01*
X139424819Y-101079999D02*
X139424819Y-101318094D01*
X138520057Y-100365713D02*
X138472438Y-100318094D01*
X138472438Y-100318094D02*
X138424819Y-100222856D01*
X138424819Y-100222856D02*
X138424819Y-99984761D01*
X138424819Y-99984761D02*
X138472438Y-99889523D01*
X138472438Y-99889523D02*
X138520057Y-99841904D01*
X138520057Y-99841904D02*
X138615295Y-99794285D01*
X138615295Y-99794285D02*
X138710533Y-99794285D01*
X138710533Y-99794285D02*
X138853390Y-99841904D01*
X138853390Y-99841904D02*
X139424819Y-100413332D01*
X139424819Y-100413332D02*
X139424819Y-99794285D01*
X139054819Y-95761904D02*
X138054819Y-95761904D01*
X139054819Y-95190476D02*
X138483390Y-95619047D01*
X138054819Y-95190476D02*
X138626247Y-95761904D01*
X126454819Y-108833333D02*
X127169104Y-108833333D01*
X127169104Y-108833333D02*
X127311961Y-108880952D01*
X127311961Y-108880952D02*
X127407200Y-108976190D01*
X127407200Y-108976190D02*
X127454819Y-109119047D01*
X127454819Y-109119047D02*
X127454819Y-109214285D01*
X126550057Y-108404761D02*
X126502438Y-108357142D01*
X126502438Y-108357142D02*
X126454819Y-108261904D01*
X126454819Y-108261904D02*
X126454819Y-108023809D01*
X126454819Y-108023809D02*
X126502438Y-107928571D01*
X126502438Y-107928571D02*
X126550057Y-107880952D01*
X126550057Y-107880952D02*
X126645295Y-107833333D01*
X126645295Y-107833333D02*
X126740533Y-107833333D01*
X126740533Y-107833333D02*
X126883390Y-107880952D01*
X126883390Y-107880952D02*
X127454819Y-108452380D01*
X127454819Y-108452380D02*
X127454819Y-107833333D01*
X150064819Y-83476666D02*
X149588628Y-83809999D01*
X150064819Y-84048094D02*
X149064819Y-84048094D01*
X149064819Y-84048094D02*
X149064819Y-83667142D01*
X149064819Y-83667142D02*
X149112438Y-83571904D01*
X149112438Y-83571904D02*
X149160057Y-83524285D01*
X149160057Y-83524285D02*
X149255295Y-83476666D01*
X149255295Y-83476666D02*
X149398152Y-83476666D01*
X149398152Y-83476666D02*
X149493390Y-83524285D01*
X149493390Y-83524285D02*
X149541009Y-83571904D01*
X149541009Y-83571904D02*
X149588628Y-83667142D01*
X149588628Y-83667142D02*
X149588628Y-84048094D01*
X150064819Y-82524285D02*
X150064819Y-83095713D01*
X150064819Y-82809999D02*
X149064819Y-82809999D01*
X149064819Y-82809999D02*
X149207676Y-82905237D01*
X149207676Y-82905237D02*
X149302914Y-83000475D01*
X149302914Y-83000475D02*
X149350533Y-83095713D01*
X125954819Y-93333333D02*
X126669104Y-93333333D01*
X126669104Y-93333333D02*
X126811961Y-93380952D01*
X126811961Y-93380952D02*
X126907200Y-93476190D01*
X126907200Y-93476190D02*
X126954819Y-93619047D01*
X126954819Y-93619047D02*
X126954819Y-93714285D01*
X126954819Y-92333333D02*
X126954819Y-92904761D01*
X126954819Y-92619047D02*
X125954819Y-92619047D01*
X125954819Y-92619047D02*
X126097676Y-92714285D01*
X126097676Y-92714285D02*
X126192914Y-92809523D01*
X126192914Y-92809523D02*
X126240533Y-92904761D01*
X162109580Y-101351451D02*
X162157200Y-101399070D01*
X162157200Y-101399070D02*
X162204819Y-101541927D01*
X162204819Y-101541927D02*
X162204819Y-101637165D01*
X162204819Y-101637165D02*
X162157200Y-101780022D01*
X162157200Y-101780022D02*
X162061961Y-101875260D01*
X162061961Y-101875260D02*
X161966723Y-101922879D01*
X161966723Y-101922879D02*
X161776247Y-101970498D01*
X161776247Y-101970498D02*
X161633390Y-101970498D01*
X161633390Y-101970498D02*
X161442914Y-101922879D01*
X161442914Y-101922879D02*
X161347676Y-101875260D01*
X161347676Y-101875260D02*
X161252438Y-101780022D01*
X161252438Y-101780022D02*
X161204819Y-101637165D01*
X161204819Y-101637165D02*
X161204819Y-101541927D01*
X161204819Y-101541927D02*
X161252438Y-101399070D01*
X161252438Y-101399070D02*
X161300057Y-101351451D01*
X162204819Y-100399070D02*
X162204819Y-100970498D01*
X162204819Y-100684784D02*
X161204819Y-100684784D01*
X161204819Y-100684784D02*
X161347676Y-100780022D01*
X161347676Y-100780022D02*
X161442914Y-100875260D01*
X161442914Y-100875260D02*
X161490533Y-100970498D01*
X149023333Y-90034819D02*
X148690000Y-89558628D01*
X148451905Y-90034819D02*
X148451905Y-89034819D01*
X148451905Y-89034819D02*
X148832857Y-89034819D01*
X148832857Y-89034819D02*
X148928095Y-89082438D01*
X148928095Y-89082438D02*
X148975714Y-89130057D01*
X148975714Y-89130057D02*
X149023333Y-89225295D01*
X149023333Y-89225295D02*
X149023333Y-89368152D01*
X149023333Y-89368152D02*
X148975714Y-89463390D01*
X148975714Y-89463390D02*
X148928095Y-89511009D01*
X148928095Y-89511009D02*
X148832857Y-89558628D01*
X148832857Y-89558628D02*
X148451905Y-89558628D01*
X149404286Y-89130057D02*
X149451905Y-89082438D01*
X149451905Y-89082438D02*
X149547143Y-89034819D01*
X149547143Y-89034819D02*
X149785238Y-89034819D01*
X149785238Y-89034819D02*
X149880476Y-89082438D01*
X149880476Y-89082438D02*
X149928095Y-89130057D01*
X149928095Y-89130057D02*
X149975714Y-89225295D01*
X149975714Y-89225295D02*
X149975714Y-89320533D01*
X149975714Y-89320533D02*
X149928095Y-89463390D01*
X149928095Y-89463390D02*
X149356667Y-90034819D01*
X149356667Y-90034819D02*
X149975714Y-90034819D01*
D12*
%TO.C,D3*%
X141500000Y-80760000D02*
X141500000Y-81780000D01*
X141500000Y-88240000D02*
X141500000Y-87220000D01*
X142970000Y-82560000D02*
X140030000Y-82560000D01*
X142970000Y-82680000D02*
X140030000Y-82680000D01*
X142970000Y-82800000D02*
X140030000Y-82800000D01*
X142970000Y-81780000D02*
X140030000Y-81780000D01*
X140030000Y-87220000D01*
X142970000Y-87220000D01*
X142970000Y-81780000D01*
%TO.C,D5*%
X151710000Y-79455000D02*
X151710000Y-82545000D01*
X151710000Y-79455170D02*
G75*
G02*
X157260000Y-81000000I2560000J-1544830D01*
G01*
X157260000Y-81000000D02*
G75*
G02*
X151710000Y-82544830I-2990000J0D01*
G01*
X156770000Y-81000000D02*
G75*
G02*
X151770000Y-81000000I-2500000J0D01*
G01*
X151770000Y-81000000D02*
G75*
G02*
X156770000Y-81000000I2500000J0D01*
G01*
%TO.C,D1*%
X136500000Y-80920000D02*
X136500000Y-81940000D01*
X136500000Y-88400000D02*
X136500000Y-87380000D01*
X137970000Y-82720000D02*
X135030000Y-82720000D01*
X137970000Y-82840000D02*
X135030000Y-82840000D01*
X137970000Y-82960000D02*
X135030000Y-82960000D01*
X137970000Y-81940000D02*
X135030000Y-81940000D01*
X135030000Y-87380000D01*
X137970000Y-87380000D01*
X137970000Y-81940000D01*
%TO.C,D4*%
X141500000Y-96840000D02*
X141500000Y-97860000D01*
X141500000Y-104320000D02*
X141500000Y-103300000D01*
X142970000Y-98640000D02*
X140030000Y-98640000D01*
X142970000Y-98760000D02*
X140030000Y-98760000D01*
X142970000Y-98880000D02*
X140030000Y-98880000D01*
X142970000Y-97860000D02*
X140030000Y-97860000D01*
X140030000Y-103300000D01*
X142970000Y-103300000D01*
X142970000Y-97860000D01*
%TO.C,D2*%
X136500000Y-96840000D02*
X136500000Y-97860000D01*
X136500000Y-104320000D02*
X136500000Y-103300000D01*
X137970000Y-98640000D02*
X135030000Y-98640000D01*
X137970000Y-98760000D02*
X135030000Y-98760000D01*
X137970000Y-98880000D02*
X135030000Y-98880000D01*
X137970000Y-97860000D02*
X135030000Y-97860000D01*
X135030000Y-103300000D01*
X137970000Y-103300000D01*
X137970000Y-97860000D01*
D13*
%TO.C,REF\u002A\u002A*%
G36*
X161229339Y-94492414D02*
G01*
X157733777Y-94492414D01*
X157733777Y-93641218D01*
X161229339Y-93641218D01*
X161229339Y-94492414D01*
G37*
G36*
X160209894Y-91910495D02*
G01*
X160215855Y-91910949D01*
X160221729Y-91911695D01*
X160227508Y-91912727D01*
X160233187Y-91914038D01*
X160238756Y-91915620D01*
X160244210Y-91917465D01*
X160249540Y-91919567D01*
X160254739Y-91921917D01*
X160259800Y-91924509D01*
X160264715Y-91927336D01*
X160269477Y-91930389D01*
X160274079Y-91933661D01*
X160278513Y-91937146D01*
X160282772Y-91940835D01*
X160286848Y-91944721D01*
X160290735Y-91948798D01*
X160294424Y-91953057D01*
X160297908Y-91957491D01*
X160301181Y-91962093D01*
X160304234Y-91966855D01*
X160307060Y-91971770D01*
X160309652Y-91976831D01*
X160312003Y-91982030D01*
X160314105Y-91987360D01*
X160315950Y-91992813D01*
X160317532Y-91998383D01*
X160318842Y-92004061D01*
X160319875Y-92009841D01*
X160320621Y-92015715D01*
X160321074Y-92021675D01*
X160321227Y-92027715D01*
X160321074Y-92033755D01*
X160320621Y-92039715D01*
X160319875Y-92045589D01*
X160318842Y-92051368D01*
X160317532Y-92057046D01*
X160315950Y-92062616D01*
X160314105Y-92068069D01*
X160312003Y-92073399D01*
X160309652Y-92078597D01*
X160307060Y-92083658D01*
X160304234Y-92088573D01*
X160301181Y-92093334D01*
X160297908Y-92097936D01*
X160294424Y-92102369D01*
X160290735Y-92106628D01*
X160286848Y-92110703D01*
X160282772Y-92114589D01*
X160278513Y-92118278D01*
X160274079Y-92121762D01*
X160269477Y-92125034D01*
X160264715Y-92128087D01*
X160259800Y-92130913D01*
X160254739Y-92133504D01*
X160249540Y-92135855D01*
X160244210Y-92137956D01*
X160238756Y-92139801D01*
X160233187Y-92141383D01*
X160227508Y-92142693D01*
X160221729Y-92143725D01*
X160215855Y-92144471D01*
X160209894Y-92144925D01*
X160203855Y-92145077D01*
X160197815Y-92144925D01*
X160191855Y-92144471D01*
X160185981Y-92143725D01*
X160180201Y-92142693D01*
X160174523Y-92141383D01*
X160168953Y-92139801D01*
X160163500Y-92137956D01*
X160158170Y-92135855D01*
X160152970Y-92133504D01*
X160147910Y-92130913D01*
X160142994Y-92128087D01*
X160138232Y-92125034D01*
X160133630Y-92121762D01*
X160129196Y-92118278D01*
X160124937Y-92114589D01*
X160120861Y-92110703D01*
X160116975Y-92106628D01*
X160113285Y-92102369D01*
X160109801Y-92097936D01*
X160106528Y-92093334D01*
X160103475Y-92088572D01*
X160100649Y-92083658D01*
X160098057Y-92078597D01*
X160095706Y-92073399D01*
X160093605Y-92068069D01*
X160091759Y-92062616D01*
X160090178Y-92057046D01*
X160088867Y-92051368D01*
X160087835Y-92045589D01*
X160087088Y-92039715D01*
X160086635Y-92033755D01*
X160086482Y-92027715D01*
X160086635Y-92021676D01*
X160087088Y-92015715D01*
X160087835Y-92009841D01*
X160088867Y-92004062D01*
X160090178Y-91998383D01*
X160091759Y-91992814D01*
X160093605Y-91987360D01*
X160095706Y-91982030D01*
X160098057Y-91976831D01*
X160100649Y-91971770D01*
X160103475Y-91966855D01*
X160106528Y-91962093D01*
X160109801Y-91957491D01*
X160113285Y-91953057D01*
X160116975Y-91948798D01*
X160120861Y-91944722D01*
X160124937Y-91940835D01*
X160129196Y-91937146D01*
X160133630Y-91933661D01*
X160138232Y-91930389D01*
X160142994Y-91927336D01*
X160147910Y-91924510D01*
X160152970Y-91921917D01*
X160158170Y-91919567D01*
X160163500Y-91917465D01*
X160168953Y-91915620D01*
X160174523Y-91914038D01*
X160180201Y-91912727D01*
X160185981Y-91911695D01*
X160191855Y-91910949D01*
X160197815Y-91910495D01*
X160203855Y-91910343D01*
X160209894Y-91910495D01*
G37*
G36*
X161620808Y-88627235D02*
G01*
X160697785Y-89567430D01*
X160716999Y-89567430D01*
X160716999Y-89988117D01*
X160442209Y-89988117D01*
X160295478Y-91562478D01*
X161380875Y-92705587D01*
X161308868Y-92773925D01*
X160546551Y-91969773D01*
X160547664Y-91976862D01*
X160548634Y-91983998D01*
X160549459Y-91991180D01*
X160550138Y-91998405D01*
X160550669Y-92005672D01*
X160551050Y-92012981D01*
X160551280Y-92020329D01*
X160551357Y-92027715D01*
X160550905Y-92045598D01*
X160549563Y-92063246D01*
X160547353Y-92080637D01*
X160544297Y-92097750D01*
X160540417Y-92114562D01*
X160535734Y-92131052D01*
X160530271Y-92147198D01*
X160524049Y-92162979D01*
X160517090Y-92178371D01*
X160509416Y-92193355D01*
X160501049Y-92207907D01*
X160492010Y-92222005D01*
X160482322Y-92235629D01*
X160472006Y-92248756D01*
X160461084Y-92261365D01*
X160449578Y-92273433D01*
X160437510Y-92284938D01*
X160424902Y-92295860D01*
X160411774Y-92306176D01*
X160398150Y-92315864D01*
X160384052Y-92324902D01*
X160369500Y-92333269D01*
X160354516Y-92340942D01*
X160339124Y-92347901D01*
X160323344Y-92354123D01*
X160307198Y-92359586D01*
X160290708Y-92364268D01*
X160273896Y-92368148D01*
X160256784Y-92371204D01*
X160239393Y-92373413D01*
X160221746Y-92374755D01*
X160203864Y-92375207D01*
X160179092Y-92374338D01*
X160154788Y-92371769D01*
X160131012Y-92367559D01*
X160107821Y-92361766D01*
X160085276Y-92354449D01*
X160063433Y-92345666D01*
X160042352Y-92335475D01*
X160022091Y-92323936D01*
X160002709Y-92311106D01*
X159984264Y-92297045D01*
X159966814Y-92281810D01*
X159950419Y-92265460D01*
X159935136Y-92248054D01*
X159921024Y-92229649D01*
X159908143Y-92210305D01*
X159896549Y-92190080D01*
X159046771Y-92190080D01*
X159046771Y-92371608D01*
X158823196Y-92371608D01*
X158823196Y-92189617D01*
X158820746Y-92189211D01*
X158818305Y-92188684D01*
X158815879Y-92188039D01*
X158813471Y-92187282D01*
X158811085Y-92186415D01*
X158808726Y-92185442D01*
X158806396Y-92184366D01*
X158804101Y-92183192D01*
X158799629Y-92180563D01*
X158795342Y-92177582D01*
X158791272Y-92174280D01*
X158787450Y-92170687D01*
X158783909Y-92166830D01*
X158780680Y-92162739D01*
X158777795Y-92158445D01*
X158776492Y-92156230D01*
X158775287Y-92153975D01*
X158774184Y-92151684D01*
X158773188Y-92149360D01*
X158772301Y-92147007D01*
X158771528Y-92144628D01*
X158770874Y-92142228D01*
X158770341Y-92139809D01*
X158769934Y-92137377D01*
X158769658Y-92134933D01*
X158721921Y-91580073D01*
X157537530Y-92786503D01*
X157466728Y-92716928D01*
X158695348Y-91466662D01*
X158833250Y-91466662D01*
X158885100Y-92069440D01*
X159858826Y-92069440D01*
X159858252Y-92064297D01*
X159857752Y-92059133D01*
X159857327Y-92053946D01*
X159856978Y-92048740D01*
X159856706Y-92043512D01*
X159856510Y-92038265D01*
X159856392Y-92033000D01*
X159856352Y-92027715D01*
X160023131Y-92027715D01*
X160023366Y-92037015D01*
X160024064Y-92046193D01*
X160025213Y-92055237D01*
X160026802Y-92064136D01*
X160028820Y-92072880D01*
X160031255Y-92081456D01*
X160034096Y-92089853D01*
X160037332Y-92098060D01*
X160040951Y-92106065D01*
X160044942Y-92113857D01*
X160049293Y-92121425D01*
X160053994Y-92128758D01*
X160059032Y-92135844D01*
X160064397Y-92142671D01*
X160070077Y-92149228D01*
X160076061Y-92155505D01*
X160082337Y-92161489D01*
X160088895Y-92167169D01*
X160095722Y-92172534D01*
X160102807Y-92177573D01*
X160110140Y-92182274D01*
X160117708Y-92186626D01*
X160125500Y-92190617D01*
X160133506Y-92194236D01*
X160141713Y-92197472D01*
X160150110Y-92200313D01*
X160158686Y-92202749D01*
X160167430Y-92204767D01*
X160176330Y-92206356D01*
X160185375Y-92207506D01*
X160194554Y-92208204D01*
X160203854Y-92208439D01*
X160213154Y-92208204D01*
X160222332Y-92207506D01*
X160231376Y-92206356D01*
X160240276Y-92204767D01*
X160249019Y-92202749D01*
X160257595Y-92200313D01*
X160265992Y-92197472D01*
X160274199Y-92194236D01*
X160282204Y-92190617D01*
X160289997Y-92186626D01*
X160297565Y-92182274D01*
X160304897Y-92177573D01*
X160311983Y-92172534D01*
X160318810Y-92167169D01*
X160325368Y-92161489D01*
X160331644Y-92155505D01*
X160337628Y-92149228D01*
X160343309Y-92142671D01*
X160348674Y-92135844D01*
X160353712Y-92128758D01*
X160358413Y-92121425D01*
X160362765Y-92113857D01*
X160366756Y-92106065D01*
X160370375Y-92098060D01*
X160373611Y-92089853D01*
X160376453Y-92081456D01*
X160378888Y-92072880D01*
X160380906Y-92064136D01*
X160382496Y-92055237D01*
X160383645Y-92046193D01*
X160384343Y-92037015D01*
X160384578Y-92027715D01*
X160384343Y-92018415D01*
X160383645Y-92009236D01*
X160382496Y-92000191D01*
X160380906Y-91991291D01*
X160378888Y-91982547D01*
X160376453Y-91973971D01*
X160373611Y-91965574D01*
X160370375Y-91957366D01*
X160366756Y-91949361D01*
X160362765Y-91941568D01*
X160358413Y-91934000D01*
X160353712Y-91926668D01*
X160348674Y-91919582D01*
X160343309Y-91912755D01*
X160337628Y-91906198D01*
X160331644Y-91899922D01*
X160325368Y-91893938D01*
X160318810Y-91888258D01*
X160311983Y-91882893D01*
X160304897Y-91877854D01*
X160297565Y-91873154D01*
X160289997Y-91868802D01*
X160282204Y-91864812D01*
X160274199Y-91861193D01*
X160265992Y-91857957D01*
X160257595Y-91855116D01*
X160249019Y-91852681D01*
X160240276Y-91850663D01*
X160231376Y-91849074D01*
X160222332Y-91847924D01*
X160213154Y-91847226D01*
X160203854Y-91846991D01*
X160194554Y-91847226D01*
X160185375Y-91847924D01*
X160176331Y-91849074D01*
X160167430Y-91850663D01*
X160158687Y-91852681D01*
X160150110Y-91855116D01*
X160141713Y-91857957D01*
X160133506Y-91861193D01*
X160125500Y-91864812D01*
X160117708Y-91868802D01*
X160110140Y-91873154D01*
X160102807Y-91877854D01*
X160095722Y-91882893D01*
X160088895Y-91888258D01*
X160082337Y-91893938D01*
X160076061Y-91899922D01*
X160070077Y-91906198D01*
X160064397Y-91912755D01*
X160059032Y-91919582D01*
X160053994Y-91926668D01*
X160049293Y-91934000D01*
X160044942Y-91941568D01*
X160040951Y-91949361D01*
X160037332Y-91957366D01*
X160034096Y-91965574D01*
X160031255Y-91973971D01*
X160028820Y-91982547D01*
X160026802Y-91991291D01*
X160025213Y-92000191D01*
X160024064Y-92009236D01*
X160023366Y-92018415D01*
X160023131Y-92027715D01*
X159856352Y-92027715D01*
X159856742Y-92011109D01*
X159857900Y-91994704D01*
X159859808Y-91978517D01*
X159862449Y-91962567D01*
X159865806Y-91946869D01*
X159869860Y-91931442D01*
X159874595Y-91916304D01*
X159879994Y-91901471D01*
X159886038Y-91886961D01*
X159892710Y-91872792D01*
X159899993Y-91858980D01*
X159907869Y-91845545D01*
X159916321Y-91832502D01*
X159925332Y-91819870D01*
X159934883Y-91807665D01*
X159944958Y-91795906D01*
X159955539Y-91784610D01*
X159966609Y-91773794D01*
X159978150Y-91763476D01*
X159990144Y-91753673D01*
X160002574Y-91744402D01*
X160015424Y-91735682D01*
X160028674Y-91727529D01*
X160042308Y-91719961D01*
X160056309Y-91712996D01*
X160070658Y-91706651D01*
X160085339Y-91700943D01*
X160100334Y-91695890D01*
X160115626Y-91691509D01*
X160131196Y-91687818D01*
X160147029Y-91684835D01*
X160163105Y-91682576D01*
X160173059Y-91575790D01*
X159462239Y-90825971D01*
X158833250Y-91466662D01*
X158695348Y-91466662D01*
X158710811Y-91450928D01*
X158588783Y-90032325D01*
X158709876Y-90032325D01*
X158822161Y-91337617D01*
X159393077Y-90756637D01*
X159530306Y-90756637D01*
X160185124Y-91446273D01*
X160321016Y-89988117D01*
X160307613Y-89988117D01*
X160307613Y-89964852D01*
X159530306Y-90756637D01*
X159393077Y-90756637D01*
X159394826Y-90754857D01*
X158709876Y-90032325D01*
X158588783Y-90032325D01*
X158576698Y-89891838D01*
X157393162Y-88643362D01*
X157393162Y-88505871D01*
X158563497Y-89738432D01*
X158533091Y-89384957D01*
X158654186Y-89384957D01*
X158696654Y-89878667D01*
X159462862Y-90685615D01*
X159916074Y-90224430D01*
X159277112Y-90224430D01*
X159277112Y-89983130D01*
X160016103Y-89983130D01*
X160016103Y-90122632D01*
X160254902Y-89879632D01*
X160452303Y-89879632D01*
X160611411Y-89879632D01*
X160611411Y-89675935D01*
X160591272Y-89675935D01*
X160458707Y-89810962D01*
X160452303Y-89879632D01*
X160254902Y-89879632D01*
X160307613Y-89825993D01*
X160307613Y-89567451D01*
X160360217Y-89567451D01*
X160377218Y-89384957D01*
X158654186Y-89384957D01*
X158533091Y-89384957D01*
X158532661Y-89379960D01*
X158387318Y-89379960D01*
X158387318Y-89259310D01*
X158515197Y-89259310D01*
X158970490Y-89259310D01*
X160372483Y-89259310D01*
X160366864Y-89247341D01*
X160360344Y-89235769D01*
X160352951Y-89224589D01*
X160344715Y-89213794D01*
X160335665Y-89203377D01*
X160325829Y-89193332D01*
X160315238Y-89183652D01*
X160303921Y-89174330D01*
X160291906Y-89165360D01*
X160279224Y-89156736D01*
X160265903Y-89148451D01*
X160251973Y-89140498D01*
X160222400Y-89125564D01*
X160190741Y-89111880D01*
X160157229Y-89099394D01*
X160122098Y-89088055D01*
X160085583Y-89077809D01*
X160047916Y-89068604D01*
X160009332Y-89060387D01*
X159970064Y-89053107D01*
X159930348Y-89046710D01*
X159890426Y-89041146D01*
X159890426Y-89153752D01*
X159297240Y-89153752D01*
X159297240Y-89033102D01*
X159297240Y-89028457D01*
X159257367Y-89031714D01*
X159216719Y-89035631D01*
X159175545Y-89040258D01*
X159134095Y-89045644D01*
X159092615Y-89051842D01*
X159051356Y-89058900D01*
X159010564Y-89066870D01*
X158970490Y-89075802D01*
X158970490Y-89259310D01*
X158515197Y-89259310D01*
X158515200Y-89259300D01*
X158644192Y-89259300D01*
X158764319Y-89259300D01*
X158764319Y-89149519D01*
X158754255Y-89155142D01*
X158744485Y-89160921D01*
X158735019Y-89166857D01*
X158725867Y-89172953D01*
X158717039Y-89179210D01*
X158708546Y-89185631D01*
X158700396Y-89192218D01*
X158692601Y-89198973D01*
X158685171Y-89205897D01*
X158678114Y-89212994D01*
X158671441Y-89220265D01*
X158665163Y-89227711D01*
X158659289Y-89235336D01*
X158653829Y-89243141D01*
X158648793Y-89251129D01*
X158644192Y-89259300D01*
X158515200Y-89259300D01*
X158516056Y-89256716D01*
X158516985Y-89254017D01*
X158517986Y-89251215D01*
X158519060Y-89248314D01*
X158520211Y-89245315D01*
X158521441Y-89242222D01*
X158522751Y-89239038D01*
X158524145Y-89235763D01*
X158532643Y-89217663D01*
X158542168Y-89200207D01*
X158552687Y-89183386D01*
X158564165Y-89167187D01*
X158576569Y-89151599D01*
X158589864Y-89136612D01*
X158604016Y-89122214D01*
X158618991Y-89108392D01*
X158634755Y-89095137D01*
X158651274Y-89082436D01*
X158660683Y-89075802D01*
X158668514Y-89070279D01*
X158686440Y-89058654D01*
X158705019Y-89047549D01*
X158724216Y-89036954D01*
X158743997Y-89026857D01*
X158764329Y-89017246D01*
X158764329Y-88977784D01*
X159417870Y-88977784D01*
X159417870Y-89033102D01*
X159769756Y-89033102D01*
X159769756Y-88977784D01*
X159417870Y-88977784D01*
X158764329Y-88977784D01*
X158764329Y-88937507D01*
X158970490Y-88937507D01*
X158970490Y-88949843D01*
X159011029Y-88941106D01*
X159051982Y-88933370D01*
X159093185Y-88926580D01*
X159134476Y-88920682D01*
X159175690Y-88915622D01*
X159216664Y-88911345D01*
X159257235Y-88907796D01*
X159297240Y-88904921D01*
X159297240Y-88857144D01*
X159890426Y-88857144D01*
X159890426Y-88918295D01*
X159970683Y-88929867D01*
X160010604Y-88936957D01*
X160050157Y-88944986D01*
X160089173Y-88954006D01*
X160127483Y-88964072D01*
X160164918Y-88975236D01*
X160201310Y-88987550D01*
X160236488Y-89001068D01*
X160270283Y-89015842D01*
X160302527Y-89031926D01*
X160333051Y-89049371D01*
X160361685Y-89068232D01*
X160388260Y-89088561D01*
X160412607Y-89110411D01*
X160434557Y-89133834D01*
X160440267Y-89126964D01*
X160446344Y-89120424D01*
X160452772Y-89114229D01*
X160459535Y-89108395D01*
X160466617Y-89102938D01*
X160474003Y-89097874D01*
X160481678Y-89093217D01*
X160489625Y-89088984D01*
X160497830Y-89085190D01*
X160506275Y-89081852D01*
X160514946Y-89078984D01*
X160523828Y-89076602D01*
X160532903Y-89074723D01*
X160542157Y-89073361D01*
X160551575Y-89072532D01*
X160561139Y-89072253D01*
X160569418Y-89072462D01*
X160577588Y-89073083D01*
X160585639Y-89074106D01*
X160593561Y-89075521D01*
X160601344Y-89077317D01*
X160608978Y-89079484D01*
X160616452Y-89082013D01*
X160623758Y-89084894D01*
X160630884Y-89088115D01*
X160637820Y-89091667D01*
X160644557Y-89095541D01*
X160651083Y-89099725D01*
X160657390Y-89104210D01*
X160663467Y-89108985D01*
X160669304Y-89114041D01*
X160674891Y-89119368D01*
X160680217Y-89124954D01*
X160685273Y-89130791D01*
X160690049Y-89136868D01*
X160694534Y-89143175D01*
X160698718Y-89149702D01*
X160702591Y-89156439D01*
X160706144Y-89163375D01*
X160709365Y-89170501D01*
X160712245Y-89177806D01*
X160714774Y-89185281D01*
X160716942Y-89192915D01*
X160718738Y-89200698D01*
X160720153Y-89208620D01*
X160721176Y-89216671D01*
X160721797Y-89224841D01*
X160722006Y-89233119D01*
X160721797Y-89241397D01*
X160721176Y-89249566D01*
X160720153Y-89257616D01*
X160718738Y-89265538D01*
X160716942Y-89273320D01*
X160714774Y-89280954D01*
X160712245Y-89288428D01*
X160709365Y-89295733D01*
X160706144Y-89302859D01*
X160702591Y-89309795D01*
X160698718Y-89316532D01*
X160694534Y-89323059D01*
X160690049Y-89329366D01*
X160685273Y-89335443D01*
X160680217Y-89341280D01*
X160674891Y-89346867D01*
X160669304Y-89352194D01*
X160663467Y-89357250D01*
X160657390Y-89362026D01*
X160651083Y-89366511D01*
X160644557Y-89370695D01*
X160637820Y-89374569D01*
X160630884Y-89378122D01*
X160623758Y-89381343D01*
X160616452Y-89384224D01*
X160608978Y-89386753D01*
X160601344Y-89388921D01*
X160593561Y-89390717D01*
X160585639Y-89392132D01*
X160577588Y-89393155D01*
X160569418Y-89393777D01*
X160561139Y-89393986D01*
X160557004Y-89393934D01*
X160552895Y-89393778D01*
X160548812Y-89393521D01*
X160544758Y-89393162D01*
X160540732Y-89392704D01*
X160536738Y-89392147D01*
X160532775Y-89391493D01*
X160528845Y-89390743D01*
X160524950Y-89389899D01*
X160521091Y-89388961D01*
X160517268Y-89387930D01*
X160513484Y-89386809D01*
X160509739Y-89385598D01*
X160506034Y-89384298D01*
X160502372Y-89382911D01*
X160498753Y-89381438D01*
X160481410Y-89567440D01*
X160561702Y-89567440D01*
X161620808Y-88489674D01*
X161620808Y-88627235D01*
G37*
D12*
%TO.C,J2*%
X122880000Y-96380000D02*
X130920000Y-96380000D01*
X122880000Y-107120000D02*
X122880000Y-96380000D01*
X126500000Y-97188000D02*
X126500000Y-96380000D01*
X126500000Y-102120000D02*
X126500000Y-100812000D01*
X126500000Y-107120000D02*
X126500000Y-105880000D01*
X127500000Y-97188000D02*
X127500000Y-96380000D01*
X127500000Y-102120000D02*
X127500000Y-100812000D01*
X127500000Y-107120000D02*
X127500000Y-105880000D01*
X128800000Y-98457000D02*
X128800000Y-96380000D01*
X128800000Y-102120000D02*
X128800000Y-99543000D01*
X128800000Y-107120000D02*
X128800000Y-105880000D01*
X130920000Y-96380000D02*
X130920000Y-103700000D01*
X130920000Y-104300000D02*
X130920000Y-107120000D01*
X130920000Y-107120000D02*
X122880000Y-107120000D01*
X131530000Y-104440000D02*
X130920000Y-104000000D01*
X131530000Y-103560000D01*
X131530000Y-104440000D01*
G36*
X131530000Y-104440000D02*
G01*
X130920000Y-104000000D01*
X131530000Y-103560000D01*
X131530000Y-104440000D01*
G37*
%TO.C,R1*%
X147690000Y-80440000D02*
X147690000Y-81390000D01*
X147690000Y-86180000D02*
X147690000Y-85230000D01*
X148610000Y-81390000D02*
X146770000Y-81390000D01*
X146770000Y-85230000D01*
X148610000Y-85230000D01*
X148610000Y-81390000D01*
%TO.C,J1*%
X122380000Y-80880000D02*
X130420000Y-80880000D01*
X122380000Y-91620000D02*
X122380000Y-80880000D01*
X126000000Y-81688000D02*
X126000000Y-80880000D01*
X126000000Y-86620000D02*
X126000000Y-85312000D01*
X126000000Y-91620000D02*
X126000000Y-90380000D01*
X127000000Y-81688000D02*
X127000000Y-80880000D01*
X127000000Y-86620000D02*
X127000000Y-85312000D01*
X127000000Y-91620000D02*
X127000000Y-90380000D01*
X128300000Y-82957000D02*
X128300000Y-80880000D01*
X128300000Y-86620000D02*
X128300000Y-84043000D01*
X128300000Y-91620000D02*
X128300000Y-90380000D01*
X130420000Y-80880000D02*
X130420000Y-88200000D01*
X130420000Y-88800000D02*
X130420000Y-91620000D01*
X130420000Y-91620000D02*
X122380000Y-91620000D01*
X131030000Y-88940000D02*
X130420000Y-88500000D01*
X131030000Y-88060000D01*
X131030000Y-88940000D01*
G36*
X131030000Y-88940000D02*
G01*
X130420000Y-88500000D01*
X131030000Y-88060000D01*
X131030000Y-88940000D01*
G37*
%TO.C,C1*%
X152560000Y-102264785D02*
X147509000Y-102264785D01*
X152560000Y-102304785D02*
X147515000Y-102304785D01*
X152560000Y-102344785D02*
X147522000Y-102344785D01*
X152560000Y-102384785D02*
X147530000Y-102384785D01*
X152560000Y-102424785D02*
X147537000Y-102424785D01*
X152560000Y-102464785D02*
X147545000Y-102464785D01*
X152560000Y-102504785D02*
X147553000Y-102504785D01*
X152560000Y-102544785D02*
X147561000Y-102544785D01*
X152560000Y-102584785D02*
X147570000Y-102584785D01*
X152560000Y-102624785D02*
X147579000Y-102624785D01*
X152560000Y-102664785D02*
X147588000Y-102664785D01*
X152560000Y-102704785D02*
X147597000Y-102704785D01*
X152560000Y-102744785D02*
X147606000Y-102744785D01*
X152560000Y-102784785D02*
X147616000Y-102784785D01*
X152560000Y-102824785D02*
X147626000Y-102824785D01*
X152560000Y-102864785D02*
X147637000Y-102864785D01*
X152560000Y-102904785D02*
X147647000Y-102904785D01*
X152560000Y-102944785D02*
X147658000Y-102944785D01*
X152560000Y-102984785D02*
X147669000Y-102984785D01*
X152560000Y-103024785D02*
X147681000Y-103024785D01*
X152560000Y-103064785D02*
X147693000Y-103064785D01*
X152560000Y-103104785D02*
X147705000Y-103104785D01*
X152560000Y-103144785D02*
X147717000Y-103144785D01*
X152560000Y-103184785D02*
X147729000Y-103184785D01*
X152560000Y-103224785D02*
X147742000Y-103224785D01*
X152560000Y-103264785D02*
X147755000Y-103264785D01*
X152560000Y-103304785D02*
X147769000Y-103304785D01*
X152560000Y-103344785D02*
X147782000Y-103344785D01*
X152560000Y-103384785D02*
X147796000Y-103384785D01*
X152560000Y-103424785D02*
X147810000Y-103424785D01*
X152560000Y-103464785D02*
X147825000Y-103464785D01*
X152560000Y-103504785D02*
X147840000Y-103504785D01*
X152560000Y-103544785D02*
X147855000Y-103544785D01*
X152560000Y-103584785D02*
X147870000Y-103584785D01*
X152560000Y-103624785D02*
X147886000Y-103624785D01*
X152560000Y-103664785D02*
X147902000Y-103664785D01*
X152560000Y-103704785D02*
X147918000Y-103704785D01*
X152560000Y-103744785D02*
X147935000Y-103744785D01*
X152560000Y-103784785D02*
X147952000Y-103784785D01*
X152560000Y-103824785D02*
X147969000Y-103824785D01*
X152560000Y-103864785D02*
X147987000Y-103864785D01*
X152560000Y-103904785D02*
X148005000Y-103904785D01*
X152560000Y-103944785D02*
X148023000Y-103944785D01*
X152560000Y-103984785D02*
X148041000Y-103984785D01*
X152560000Y-104024785D02*
X148060000Y-104024785D01*
X152560000Y-104064785D02*
X148079000Y-104064785D01*
X152560000Y-104104785D02*
X148099000Y-104104785D01*
X152560000Y-104144785D02*
X148119000Y-104144785D01*
X152560000Y-104184785D02*
X148139000Y-104184785D01*
X152560000Y-104224785D02*
X148159000Y-104224785D01*
X152560000Y-104264785D02*
X148180000Y-104264785D01*
X152560000Y-104304785D02*
X148201000Y-104304785D01*
X152560000Y-104344785D02*
X148223000Y-104344785D01*
X152560000Y-104384785D02*
X148245000Y-104384785D01*
X152560000Y-104424785D02*
X148267000Y-104424785D01*
X152560000Y-104464785D02*
X148290000Y-104464785D01*
X152560000Y-104504785D02*
X148313000Y-104504785D01*
X152560000Y-104544785D02*
X148336000Y-104544785D01*
X152560000Y-104584785D02*
X148360000Y-104584785D01*
X152560000Y-104624785D02*
X148384000Y-104624785D01*
X152560000Y-104664785D02*
X148408000Y-104664785D01*
X152560000Y-104704785D02*
X148433000Y-104704785D01*
X152560000Y-104744785D02*
X148459000Y-104744785D01*
X152560000Y-104784785D02*
X148484000Y-104784785D01*
X152560000Y-104824785D02*
X148511000Y-104824785D01*
X152560000Y-104864785D02*
X148537000Y-104864785D01*
X152560000Y-104904785D02*
X148564000Y-104904785D01*
X152560000Y-104944785D02*
X148591000Y-104944785D01*
X152560000Y-104984785D02*
X148619000Y-104984785D01*
X152560000Y-105024785D02*
X148648000Y-105024785D01*
X152560000Y-105064785D02*
X148676000Y-105064785D01*
X152560000Y-105104785D02*
X148705000Y-105104785D01*
X154474000Y-107784785D02*
X153526000Y-107784785D01*
X154849000Y-107744785D02*
X153151000Y-107744785D01*
X155106000Y-107704785D02*
X152894000Y-107704785D01*
X155314000Y-107664785D02*
X152686000Y-107664785D01*
X155493000Y-107624785D02*
X152507000Y-107624785D01*
X155652000Y-107584785D02*
X152348000Y-107584785D01*
X155797000Y-107544785D02*
X152203000Y-107544785D01*
X155930000Y-107504785D02*
X152070000Y-107504785D01*
X156054000Y-107464785D02*
X151946000Y-107464785D01*
X156171000Y-107424785D02*
X151829000Y-107424785D01*
X156280000Y-107384785D02*
X151720000Y-107384785D01*
X156385000Y-107344785D02*
X151615000Y-107344785D01*
X156484000Y-107304785D02*
X151516000Y-107304785D01*
X156579000Y-107264785D02*
X151421000Y-107264785D01*
X156670000Y-107224785D02*
X151330000Y-107224785D01*
X156757000Y-107184785D02*
X151243000Y-107184785D01*
X156841000Y-107144785D02*
X151159000Y-107144785D01*
X156923000Y-107104785D02*
X151077000Y-107104785D01*
X157001000Y-107064785D02*
X150999000Y-107064785D01*
X157077000Y-107024785D02*
X150923000Y-107024785D01*
X157151000Y-106984785D02*
X150849000Y-106984785D01*
X157223000Y-106944785D02*
X150777000Y-106944785D01*
X157293000Y-106904785D02*
X150707000Y-106904785D01*
X157360000Y-106864785D02*
X150640000Y-106864785D01*
X157426000Y-106824785D02*
X150574000Y-106824785D01*
X157490000Y-106784785D02*
X150510000Y-106784785D01*
X157553000Y-106744785D02*
X150447000Y-106744785D01*
X157614000Y-106704785D02*
X150386000Y-106704785D01*
X157674000Y-106664785D02*
X150326000Y-106664785D01*
X157715000Y-94100216D02*
X157715000Y-95400216D01*
X157732000Y-106624785D02*
X150268000Y-106624785D01*
X157789000Y-106584785D02*
X150211000Y-106584785D01*
X157845000Y-106544785D02*
X150155000Y-106544785D01*
X157900000Y-106504785D02*
X150100000Y-106504785D01*
X157953000Y-106464785D02*
X150047000Y-106464785D01*
X158006000Y-106424785D02*
X149994000Y-106424785D01*
X158057000Y-106384785D02*
X149943000Y-106384785D01*
X158107000Y-106344785D02*
X149893000Y-106344785D01*
X158156000Y-106304785D02*
X149844000Y-106304785D01*
X158205000Y-106264785D02*
X149795000Y-106264785D01*
X158252000Y-106224785D02*
X149748000Y-106224785D01*
X158299000Y-106184785D02*
X149701000Y-106184785D01*
X158344000Y-106144785D02*
X149656000Y-106144785D01*
X158365000Y-94750216D02*
X157065000Y-94750216D01*
X158389000Y-106104785D02*
X149611000Y-106104785D01*
X158433000Y-106064785D02*
X149567000Y-106064785D01*
X158477000Y-106024785D02*
X149523000Y-106024785D01*
X158519000Y-105984785D02*
X149481000Y-105984785D01*
X158561000Y-105944785D02*
X149439000Y-105944785D01*
X158602000Y-105904785D02*
X149398000Y-105904785D01*
X158642000Y-105864785D02*
X149358000Y-105864785D01*
X158682000Y-105824785D02*
X149318000Y-105824785D01*
X158721000Y-105784785D02*
X149279000Y-105784785D01*
X158759000Y-105744785D02*
X149241000Y-105744785D01*
X158797000Y-105704785D02*
X149203000Y-105704785D01*
X158834000Y-105664785D02*
X149166000Y-105664785D01*
X158870000Y-105624785D02*
X149130000Y-105624785D01*
X158906000Y-105584785D02*
X149094000Y-105584785D01*
X158941000Y-105544785D02*
X149059000Y-105544785D01*
X158976000Y-105504785D02*
X149024000Y-105504785D01*
X159010000Y-105464785D02*
X148990000Y-105464785D01*
X159044000Y-105424785D02*
X148956000Y-105424785D01*
X159077000Y-105384785D02*
X148923000Y-105384785D01*
X159110000Y-105344785D02*
X148890000Y-105344785D01*
X159142000Y-105304785D02*
X148858000Y-105304785D01*
X159173000Y-105264785D02*
X148827000Y-105264785D01*
X159204000Y-105224785D02*
X148796000Y-105224785D01*
X159235000Y-105184785D02*
X148765000Y-105184785D01*
X159265000Y-105144785D02*
X148735000Y-105144785D01*
X159295000Y-105104785D02*
X155440000Y-105104785D01*
X159324000Y-105064785D02*
X155440000Y-105064785D01*
X159352000Y-105024785D02*
X155440000Y-105024785D01*
X159381000Y-104984785D02*
X155440000Y-104984785D01*
X159409000Y-104944785D02*
X155440000Y-104944785D01*
X159436000Y-104904785D02*
X155440000Y-104904785D01*
X159463000Y-104864785D02*
X155440000Y-104864785D01*
X159489000Y-104824785D02*
X155440000Y-104824785D01*
X159516000Y-104784785D02*
X155440000Y-104784785D01*
X159541000Y-104744785D02*
X155440000Y-104744785D01*
X159567000Y-104704785D02*
X155440000Y-104704785D01*
X159592000Y-104664785D02*
X155440000Y-104664785D01*
X159616000Y-104624785D02*
X155440000Y-104624785D01*
X159640000Y-104584785D02*
X155440000Y-104584785D01*
X159664000Y-104544785D02*
X155440000Y-104544785D01*
X159687000Y-104504785D02*
X155440000Y-104504785D01*
X159710000Y-104464785D02*
X155440000Y-104464785D01*
X159733000Y-104424785D02*
X155440000Y-104424785D01*
X159755000Y-104384785D02*
X155440000Y-104384785D01*
X159777000Y-104344785D02*
X155440000Y-104344785D01*
X159799000Y-104304785D02*
X155440000Y-104304785D01*
X159820000Y-104264785D02*
X155440000Y-104264785D01*
X159841000Y-104224785D02*
X155440000Y-104224785D01*
X159861000Y-104184785D02*
X155440000Y-104184785D01*
X159881000Y-104144785D02*
X155440000Y-104144785D01*
X159901000Y-104104785D02*
X155440000Y-104104785D01*
X159921000Y-104064785D02*
X155440000Y-104064785D01*
X159940000Y-104024785D02*
X155440000Y-104024785D01*
X159959000Y-103984785D02*
X155440000Y-103984785D01*
X159977000Y-103944785D02*
X155440000Y-103944785D01*
X159995000Y-103904785D02*
X155440000Y-103904785D01*
X160013000Y-103864785D02*
X155440000Y-103864785D01*
X160031000Y-103824785D02*
X155440000Y-103824785D01*
X160048000Y-103784785D02*
X155440000Y-103784785D01*
X160065000Y-103744785D02*
X155440000Y-103744785D01*
X160082000Y-103704785D02*
X155440000Y-103704785D01*
X160098000Y-103664785D02*
X155440000Y-103664785D01*
X160114000Y-103624785D02*
X155440000Y-103624785D01*
X160130000Y-103584785D02*
X155440000Y-103584785D01*
X160145000Y-103544785D02*
X155440000Y-103544785D01*
X160160000Y-103504785D02*
X155440000Y-103504785D01*
X160175000Y-103464785D02*
X155440000Y-103464785D01*
X160190000Y-103424785D02*
X155440000Y-103424785D01*
X160204000Y-103384785D02*
X155440000Y-103384785D01*
X160218000Y-103344785D02*
X155440000Y-103344785D01*
X160231000Y-103304785D02*
X155440000Y-103304785D01*
X160245000Y-103264785D02*
X155440000Y-103264785D01*
X160258000Y-103224785D02*
X155440000Y-103224785D01*
X160271000Y-103184785D02*
X155440000Y-103184785D01*
X160283000Y-103144785D02*
X155440000Y-103144785D01*
X160295000Y-103104785D02*
X155440000Y-103104785D01*
X160307000Y-103064785D02*
X155440000Y-103064785D01*
X160319000Y-103024785D02*
X155440000Y-103024785D01*
X160331000Y-102984785D02*
X155440000Y-102984785D01*
X160342000Y-102944785D02*
X155440000Y-102944785D01*
X160353000Y-102904785D02*
X155440000Y-102904785D01*
X160363000Y-102864785D02*
X155440000Y-102864785D01*
X160374000Y-102824785D02*
X155440000Y-102824785D01*
X160384000Y-102784785D02*
X155440000Y-102784785D01*
X160394000Y-102744785D02*
X155440000Y-102744785D01*
X160403000Y-102704785D02*
X155440000Y-102704785D01*
X160412000Y-102664785D02*
X155440000Y-102664785D01*
X160421000Y-102624785D02*
X155440000Y-102624785D01*
X160430000Y-102584785D02*
X155440000Y-102584785D01*
X160439000Y-102544785D02*
X155440000Y-102544785D01*
X160447000Y-102504785D02*
X155440000Y-102504785D01*
X160455000Y-102464785D02*
X155440000Y-102464785D01*
X160463000Y-102424785D02*
X155440000Y-102424785D01*
X160470000Y-102384785D02*
X155440000Y-102384785D01*
X160478000Y-102344785D02*
X155440000Y-102344785D01*
X160485000Y-102304785D02*
X155440000Y-102304785D01*
X160491000Y-102264785D02*
X155440000Y-102264785D01*
X160498000Y-102224785D02*
X147502000Y-102224785D01*
X160504000Y-102184785D02*
X147496000Y-102184785D01*
X160510000Y-102144785D02*
X147490000Y-102144785D01*
X160516000Y-102104785D02*
X147484000Y-102104785D01*
X160521000Y-102064785D02*
X147479000Y-102064785D01*
X160526000Y-102024785D02*
X147474000Y-102024785D01*
X160531000Y-101984785D02*
X147469000Y-101984785D01*
X160536000Y-101944785D02*
X147464000Y-101944785D01*
X160541000Y-101904785D02*
X147459000Y-101904785D01*
X160545000Y-101864785D02*
X147455000Y-101864785D01*
X160549000Y-101824785D02*
X147451000Y-101824785D01*
X160553000Y-101784785D02*
X147447000Y-101784785D01*
X160556000Y-101744785D02*
X147444000Y-101744785D01*
X160560000Y-101704785D02*
X147440000Y-101704785D01*
X160563000Y-101664785D02*
X147437000Y-101664785D01*
X160565000Y-101624785D02*
X147435000Y-101624785D01*
X160568000Y-101584785D02*
X147432000Y-101584785D01*
X160570000Y-101544785D02*
X147430000Y-101544785D01*
X160572000Y-101504785D02*
X147428000Y-101504785D01*
X160574000Y-101464785D02*
X147426000Y-101464785D01*
X160576000Y-101424785D02*
X147424000Y-101424785D01*
X160577000Y-101384785D02*
X147423000Y-101384785D01*
X160578000Y-101344785D02*
X147422000Y-101344785D01*
X160579000Y-101304785D02*
X147421000Y-101304785D01*
X160580000Y-101184785D02*
X147420000Y-101184785D01*
X160580000Y-101224785D02*
X147420000Y-101224785D01*
X160580000Y-101264785D02*
X147420000Y-101264785D01*
X160620000Y-101184785D02*
G75*
G02*
X147380000Y-101184785I-6620000J0D01*
G01*
X147380000Y-101184785D02*
G75*
G02*
X160620000Y-101184785I6620000J0D01*
G01*
%TO.C,R2*%
X146320000Y-91500000D02*
X147270000Y-91500000D01*
X152060000Y-91500000D02*
X151110000Y-91500000D01*
X147270000Y-90580000D02*
X151110000Y-90580000D01*
X151110000Y-92420000D01*
X147270000Y-92420000D01*
X147270000Y-90580000D01*
%TD*%
M02*
